<svg width="564" height="475" viewBox="0 0 564 475" fill="none" xmlns="http://www.w3.org/2000/svg">
<path fill-rule="evenodd" clip-rule="evenodd" d="M119 0.200667C117.151 0.485665 114.237 1.07195 113 1.20067C111.231 1.38511 106.859 2.28146 104 3.20067C101.041 4.15167 94.7555 7.45985 94 8.20067C93.7689 8.42721 93.0037 9.46954 92 10.2007C90.9964 10.9315 89.1977 10.9287 89 11.2007C88.8026 11.4723 88.5213 12.6446 88 13.2007C85.219 16.1654 81.6916 23.4908 81 28.2007C80.101 34.3234 82.1646 41.8838 86 48.2007C87.2071 50.1887 91.8765 57.2007 92 57.2007C92.031 57.2007 91.9638 56.6386 92 56.2007C92.097 55.0334 93.9398 50.3004 95 48.2007C95.5049 47.2012 96.438 45.8842 97 45.2007C97.5624 44.5171 98 43.3333 98 43.2007C98 42.4965 102.416 39.6214 105 38.2007C107.656 36.7405 115 32.8842 115 33.2007C115 33.2761 115.54 33.4327 116 33.2007C116.46 32.969 117.331 32.333 118 32.2007C119.784 31.8478 119.576 32.7567 122 32.2007C123.23 31.9187 124.582 31.2737 125 31.2007C125.418 31.1277 125.788 31.2749 126 31.2007C126.211 31.1265 128.037 30.6253 130 30.2007C136.462 28.8029 142 26.7776 142 26.2007C142 26.0726 141.789 26.2007 142 26.2007C142.21 26.2007 143.572 24.6584 145 23.2007C147.663 20.4824 148.297 19.5455 149 16.2007C149.271 14.9111 149.275 11.5345 149 10.2007C148.582 8.17539 146.776 7.07602 144 5.20067C140.263 2.67566 139.647 1.54237 134 0.200667C132.827 -0.0782742 120.661 -0.0552562 119 0.200667ZM60 1.20067C59.3309 1.32091 58.5018 1.99775 58 2.20067C57.4982 2.40359 57.0423 2.21551 57 2.20067C56.6597 2.08346 55.2537 2.44925 54 3.20067C50.8471 5.09026 48.9212 7.44275 49 10.2007C49.0478 11.877 48.6481 11.9889 50 13.2007C51.996 14.9897 52.1539 14.7398 59 18.2007C65.9665 21.7221 66.3486 22.1043 68 23.2007C70.0085 24.5339 70.8957 24.9665 71 25.2007C71.056 25.3254 71.7631 26.2007 72 26.2007C72.2369 26.2007 72 26.0341 72 26.2007C72 26.3672 71.7911 26.2013 72 26.2007C72.2637 26.2001 72.9535 25.7592 73 24.2007C73.0736 21.7411 74.146 18.9815 77 13.2007C78.3017 10.5648 78.0435 10.7677 78 9.20067C77.9599 7.76235 77.6922 7.10442 77 6.20067C76.5289 5.58615 76.1606 5.10163 76 5.20067C75.8394 5.2994 75.9541 5.40722 76 5.20067C76.1211 4.65732 73.167 3.11351 70 2.20067C67.1235 1.37172 62.3814 0.773624 60 1.20067ZM67 2.20067C67.5934 2.33635 67.0034 2.74213 67 3.20067C66.9912 4.40699 67.1323 5.08467 64 5.20067C61.6935 5.28608 60.4395 5.63764 59 6.20067H57H56L55 5.20067L56 4.20067C56.9021 3.36778 58.8151 2.45901 61 2.20067C61.7822 2.10829 62.9164 2.27941 63 2.20067C63.1667 2.04348 65.6725 1.89659 67 2.20067ZM131 3.20067C132.349 3.66527 131.993 4.06794 132 5.20067C132.009 6.78376 131.947 7.08679 126 7.20067C121.155 7.29365 120.973 7.09399 118 8.20067C114.541 9.48816 112.432 9.89151 111 9.20067C109.865 8.65308 109.5 8.34611 110 7.20067C110.218 6.70094 110.992 6.06438 111 6.20067C111.008 6.33696 110.509 6.54866 111 6.20067C111.863 5.58857 114.683 4.47597 116 4.20067C116.352 4.12677 116.624 4.29244 117 4.20067C118.561 3.81966 118.523 3.75067 122 3.20067C122.669 3.09497 122.943 3.25518 123 3.20067C123.309 2.90355 129.976 2.84783 131 3.20067ZM138 6.20067C139.696 6.70222 141 8.0422 141 9.20067C141 10.2834 140.536 10.7404 139 10.2007C138.287 9.9505 136.515 9.28759 136 9.20067C133.961 8.85631 134.042 6.65739 136 6.20067C136.335 6.12283 136.989 6.22005 137 6.20067C137.012 6.18128 137.142 5.94717 138 6.20067ZM56 7.20067C56.1417 7.76279 55.6849 8.47076 55 9.20067C54.0827 10.178 53.5213 10.1708 53 9.20067C52.5639 8.38898 54.021 7.20067 55 7.20067C55.552 7.20067 55.8641 6.66096 56 7.20067ZM82 13.2007C81.8884 13.3115 82 14.0283 82 14.2007C82 14.3903 81.782 14.4178 82 14.2007C82.198 14.0035 82.0864 13.2867 82 13.2007C82.1113 13.0895 81.9136 13.1147 82 13.2007ZM39 19.2007C31.2449 19.9902 25.5304 22.2104 24 26.2007C23.2494 28.1578 23.9079 31.0658 25 32.2007C26.1034 33.3476 29.1247 34.8881 31 35.2007C31.4182 35.2706 31.6159 35.114 32 35.2007C32.7804 35.3766 35.7248 36.0019 45 37.2007C55.4373 38.5499 61.9158 40.2713 70 44.2007C72.2625 45.3001 74.8638 46.1383 75 46.2007C75.5757 46.4642 73.9246 41.9812 73 40.2007C72.7302 39.6813 72.9693 39.2443 73 39.2007C73.2543 38.8418 70.6347 32.7089 70 32.2007C69.8963 32.1174 69.3175 31.6962 69 31.2007C66.6116 27.4712 59.6721 23.0966 54 21.2007C49.1333 19.5737 43.0252 18.7909 39 19.2007ZM47 20.2007C49.2935 20.6968 49.8434 21.2587 50 22.2007C50.0678 22.6086 50.6046 22.9066 50 23.2007C49.2251 23.5777 48.0386 23.6983 46 23.2007C44.1874 22.7582 43.1381 23.1228 40 23.2007C36.177 23.2955 36.33 22.8149 36 22.2007C35.4398 21.1585 35.587 20.5623 37 20.2007C37.701 20.0217 38.8327 20.2679 39 20.2007C39.6049 19.9581 44.9207 19.7509 47 20.2007ZM34 23.2007C34.3546 24.1505 34.2935 24.5795 33 25.2007C30.9514 26.185 30.2035 26.8394 30 26.2007C29.7491 25.4138 30.8498 23.8991 32 23.2007C33.3114 22.4044 33.6816 22.3478 34 23.2007ZM130 35.2007C125.439 35.8864 117.572 38.3744 114 40.2007C110.901 41.7853 108.763 44.5769 106 48.2007C105.047 49.45 104.087 50.1174 104 50.2007C103.913 50.284 103.483 51.2845 103 52.2007C102.517 53.1168 101.217 53.9487 101 54.2007C100.628 54.6332 99.2302 59.9598 99 61.2007C98.941 61.5178 98.2734 62.2845 98 63.2007C97.7266 64.1168 98.0961 65.6316 98 66.2007C97.9039 66.7698 97.0578 67.1034 97 67.2007C96.9422 67.2979 97.1125 68.2012 97 69.2007C96.8875 70.2001 97.0694 70.7009 97 71.2007C96.9304 71.7004 96.0928 73.7187 96 75.2007C95.9073 76.6826 96.0882 78.0583 96 78.2007C95.9115 78.343 95.9094 78.2007 96 78.2007C96.344 78.2007 98.2004 75.5235 98 75.2007C97.8768 75.002 97.8054 75.081 98 75.2007C98.2004 75.3242 98.1652 73.7126 99 72.2007C99.7607 70.8229 100.66 69.6171 101 69.2007C101.955 68.0316 105 64.2949 105 64.2007C105 63.7297 110.559 58.2344 113 56.2007C114.087 55.2945 114.944 54.3255 115 54.2007C115.056 54.0759 115.805 54.204 116 54.2007C116.195 54.1976 116.871 53.7704 118 53.2007C119.129 52.631 119.998 52.0856 120 52.2007C120.003 52.3155 120.877 52.3672 121 52.2007C121.299 51.7951 122.869 51.3306 124 51.2007C131.263 50.3672 134.218 50.157 138 51.2007C140.324 51.8424 141.499 51.643 146 54.2007C150.759 56.905 152.616 57.9399 154 58.2007C154.531 58.3009 154.833 59.0719 155 59.2007C155.613 59.671 162.558 58.7882 164 58.2007C166.184 57.3108 167.022 56.5454 168 55.2007C168.794 54.1097 169 53.9497 169 52.2007C169 50.5446 168.842 49.9425 168 48.2007C166.78 45.6748 165.023 43.202 162 41.2007C159.374 39.4619 153.782 37.2722 150 36.2007C144.847 34.7405 136.116 34.2815 130 35.2007ZM144 37.2007C144.803 37.3642 146.568 38.1304 147 38.2007C147.432 38.2709 148.592 38.7539 150 39.2007C151.408 39.6474 152.694 40.1383 153 40.2007C154.92 40.5905 159.332 42.3999 160 43.2007C160.348 43.6183 160.409 43.7936 160 44.2007C159.585 44.6141 159.262 44.5132 158 44.2007C157.193 44.0008 155.338 43.7682 154 43.2007C150.356 41.6554 149.05 40.7277 146 40.2007C141.663 39.4514 139.625 37.9987 141 37.2007C141.666 36.8136 142.184 36.8306 144 37.2007ZM31 41.2007C30.9614 41.2304 29.84 41.098 28 41.2007C22.9201 41.4845 18.8747 42.799 15 44.2007C8.60012 46.5161 4.44465 48.4155 3.00001 51.2007C1.25124 54.5719 0.108901 58.1442 1.00001 60.2007C1.21625 60.7004 2.02708 61.0759 2.00001 61.2007C1.97325 61.3255 1.84399 61.2007 2.00001 61.2007C2.15604 61.2007 2.88475 61.8393 3.00001 62.2007C3.26704 63.0387 4.85039 64.62 7.00001 66.2007C8.43036 67.2525 11.8951 68.7976 14 69.2007C14.2871 69.2555 15 70.1752 15 70.2007C15 70.2679 14.7774 69.5171 18 70.2007C23.1435 71.2916 37.0685 71.6208 42 70.2007C42.92 69.9357 43.6238 69.2897 44 69.2007C44.3762 69.1116 45 69.3479 45 69.2007C45 69.0538 44.7549 68.2007 45 68.2007C45.7774 68.2007 50.4206 65.7056 52 64.2007C54.121 62.1799 57.5785 59.7809 58 60.2007C58.1086 60.3085 58 60.3594 58 60.2007C58 60.042 58.7071 60.2176 59 60.2007C59.2929 60.184 59.9964 59.3373 61 59.2007C64.7409 58.6919 67.046 58.8332 70 60.2007C71.2485 60.7785 73.1636 62.5659 74 63.2007C76.2202 64.8861 80.8434 69.6666 82 71.2007C82.3708 71.6922 83.8692 72.7015 85 74.2007C86.1308 75.6999 87.2017 78.0467 88 79.2007C88.7984 80.3546 90 81.2734 90 81.2007C90 81.1283 90.17 80.7828 90 80.2007C89.83 79.6189 89.0897 78.7004 89 78.2007C88.9106 77.7009 88.4155 75.7831 88 74.2007C87.5846 72.6182 87.0861 70.6171 87 70.2007C85.9657 65.203 82.941 57.8707 81 56.2007C80.9033 56.1174 80.4839 55.867 80 55.2007C78.8248 53.5821 75.5177 50.2007 75 50.2007C74.7728 50.2007 75 50.3672 75 50.2007C75 50.0341 74.2369 50.2007 74 50.2007C73.7631 50.2007 74.056 50.3379 74 50.2007C73.8659 49.8705 69.3516 47.7632 65 46.2007C56.4207 43.1208 47.0008 41.6262 33 41.2007C32.0347 41.1716 31.0383 41.171 31 41.2007ZM37 44.2007C39.5015 44.7313 40.0608 45.1588 38 46.2007C37.0335 46.6892 36.6949 47.1595 32 47.2007C26.8513 47.2458 26.1402 47.3063 23 48.2007C19.2105 49.2801 15.7588 49.9563 15 49.2007C14.2473 48.4508 14.6834 46.8067 16 46.2007C16.6229 45.9142 17.9164 45.3061 18 45.2007C18.2646 44.8675 22.896 43.7334 27 43.2007C31.1356 42.664 34.3288 43.6343 37 44.2007ZM164 45.2007C165.175 45.9394 166.366 46.6107 166 47.2007C165.669 47.7343 163.549 47.8397 163 47.2007C162.714 46.8675 162.182 46.2007 162 46.2007C161.818 46.2007 161.374 46.5481 161 46.2007C160.461 45.7006 160.717 45.5393 161 45.2007C161.543 44.5492 162.679 44.3702 164 45.2007ZM12 49.2007C12.3337 49.5677 13.0621 50.5619 13 51.2007C12.9127 52.1011 12.358 52.7003 11 53.2007C10.1664 53.5078 10.0864 53.0841 10 53.2007C9.70166 53.6044 7.66759 54.307 7.00001 54.2007C6.03104 54.0462 6.29047 53.586 7.00001 52.2007C8.14295 49.9701 10.8008 47.8811 12 49.2007ZM126 53.2007C125.916 53.2852 124.753 54.1119 124 54.2007C119.374 54.7458 115.512 56.4306 114 59.2007V60.2007C114.471 59.9941 114.916 60.2876 115 60.2007C115.084 60.114 115.749 59.2631 116 59.2007C119.168 58.4138 119.797 59.1558 122 60.2007C123.671 60.9933 124.826 62.2877 125 65.2007C125.071 66.384 125.794 67.8139 126 68.2007C126.844 69.7862 128.27 70.3551 132 71.2007C133.279 71.4905 140.575 71.4805 142 71.2007C145.551 70.5032 148.608 68.4989 149 65.2007C149.347 62.2865 145.787 58.0615 142 56.2007C139.044 54.7481 134.231 53.3903 130 53.2007C127.993 53.1107 126.084 53.1162 126 53.2007ZM137 55.2007C139.132 55.8312 142.585 58.2942 143 59.2007C143.565 60.4358 142.236 60.526 140 59.2007C138.872 58.5319 136.932 57.4627 136 57.2007C134.266 56.7134 133.643 55.7758 134 55.2007C134.275 54.7582 135.115 54.6434 137 55.2007ZM145 61.2007C146.205 62.032 146.304 62.4105 146 63.2007C145.713 63.9454 145.096 63.2589 144 62.2007C142.748 60.9925 142.823 60.4081 144 60.2007C144.075 60.1876 144.364 60.7615 145 61.2007Z" fill="white"/>
<path d="M99.84 110.881V131.201H80.96V110.641L59.84 75.2007H79.76L91.2 94.5607L102.72 75.2007H120.96L99.84 110.881ZM141.151 132.001C136.298 132.001 131.925 131.041 128.031 129.121C124.191 127.147 121.178 124.454 118.991 121.041C116.805 117.574 115.711 113.654 115.711 109.281C115.711 104.907 116.805 101.014 118.991 97.6007C121.178 94.134 124.191 91.4407 128.031 89.5207C131.925 87.6007 136.298 86.6407 141.151 86.6407C146.058 86.6407 150.431 87.6007 154.271 89.5207C158.165 91.4407 161.178 94.134 163.311 97.6007C165.498 101.014 166.591 104.907 166.591 109.281C166.591 113.654 165.498 117.574 163.311 121.041C161.178 124.454 158.165 127.147 154.271 129.121C150.431 131.041 146.058 132.001 141.151 132.001ZM141.151 117.921C143.231 117.921 144.938 117.174 146.271 115.681C147.605 114.134 148.271 112.001 148.271 109.281C148.271 106.561 147.605 104.454 146.271 102.961C144.938 101.467 143.231 100.721 141.151 100.721C139.071 100.721 137.365 101.467 136.031 102.961C134.698 104.454 134.031 106.561 134.031 109.281C134.031 112.001 134.698 114.134 136.031 115.681C137.365 117.174 139.071 117.921 141.151 117.921ZM220.09 87.4407V131.201H202.89V127.041C201.29 128.694 199.423 129.947 197.29 130.801C195.157 131.601 192.89 132.001 190.49 132.001C184.943 132.001 180.49 130.321 177.13 126.961C173.77 123.547 172.09 118.427 172.09 111.601V87.4407H190.17V108.481C190.17 111.467 190.65 113.601 191.61 114.881C192.57 116.161 193.983 116.801 195.85 116.801C197.61 116.801 199.077 116.107 200.25 114.721C201.423 113.281 202.01 111.041 202.01 108.001V87.4407H220.09ZM245.309 92.1607C248.509 88.4807 253.229 86.6407 259.469 86.6407V102.641C258.029 102.427 256.696 102.321 255.469 102.321C249.283 102.321 246.189 105.467 246.189 111.761V131.201H228.109V87.4407H245.309V92.1607ZM380.258 75.2007L362.338 131.201H342.098L333.058 101.281L323.538 131.201H303.298L285.378 75.2007H304.818L314.578 107.041L324.898 75.2007H342.258L352.018 107.441L362.338 75.2007H380.258ZM400.288 86.6407C407.968 86.6407 413.834 88.374 417.888 91.8407C421.941 95.254 423.968 100.534 423.968 107.681V131.201H407.168V125.441C405.088 129.814 400.954 132.001 394.768 132.001C391.301 132.001 388.341 131.414 385.888 130.241C383.488 129.014 381.648 127.387 380.368 125.361C379.141 123.281 378.528 120.961 378.528 118.401C378.528 114.081 380.181 110.801 383.488 108.561C386.794 106.321 391.808 105.201 398.528 105.201H405.808C405.221 101.787 402.474 100.081 397.568 100.081C395.594 100.081 393.594 100.401 391.568 101.041C389.541 101.627 387.808 102.454 386.368 103.521L380.608 91.6007C383.114 90.054 386.128 88.854 389.648 88.0007C393.221 87.094 396.768 86.6407 400.288 86.6407ZM400.207 121.121C401.488 121.121 402.634 120.774 403.648 120.081C404.661 119.387 405.408 118.347 405.888 116.961V113.921H401.408C397.728 113.921 395.888 115.147 395.888 117.601C395.888 118.614 396.261 119.467 397.008 120.161C397.808 120.801 398.874 121.121 400.207 121.121ZM464.021 129.681C461.301 131.227 457.595 132.001 452.901 132.001C446.768 132.001 442.048 130.534 438.741 127.601C435.435 124.614 433.781 120.161 433.781 114.241V103.041H427.781V89.8407H433.781V77.6007H451.861V89.8407H460.821V103.041H451.861V114.081C451.861 115.414 452.208 116.454 452.901 117.201C453.595 117.947 454.501 118.321 455.621 118.321C457.168 118.321 458.528 117.921 459.701 117.121L464.021 129.681ZM513.966 109.281C513.966 109.547 513.886 110.961 513.726 113.521H483.326C483.966 115.174 485.033 116.454 486.526 117.361C488.02 118.214 489.886 118.641 492.126 118.641C494.046 118.641 495.646 118.401 496.926 117.921C498.26 117.441 499.7 116.614 501.246 115.441L510.686 124.961C506.42 129.654 500.046 132.001 491.566 132.001C486.286 132.001 481.646 131.041 477.646 129.121C473.646 127.147 470.553 124.427 468.366 120.961C466.18 117.494 465.086 113.601 465.086 109.281C465.086 104.907 466.153 101.014 468.286 97.6007C470.473 94.134 473.433 91.4407 477.166 89.5207C480.953 87.6007 485.193 86.6407 489.886 86.6407C494.313 86.6407 498.34 87.5207 501.966 89.2807C505.646 91.0407 508.553 93.6273 510.686 97.0407C512.873 100.454 513.966 104.534 513.966 109.281ZM490.046 98.9607C488.18 98.9607 486.633 99.4673 485.406 100.481C484.18 101.494 483.38 102.934 483.006 104.801H497.086C496.713 102.987 495.913 101.574 494.686 100.561C493.46 99.494 491.913 98.9607 490.046 98.9607ZM536.872 92.1607C540.072 88.4807 544.792 86.6407 551.032 86.6407V102.641C549.592 102.427 548.259 102.321 547.032 102.321C540.845 102.321 537.752 105.467 537.752 111.761V131.201H519.672V87.4407H536.872V92.1607ZM111.36 190.921C114.667 192.147 117.227 193.934 119.04 196.281C120.853 198.627 121.76 201.454 121.76 204.761C121.76 209.667 119.733 213.481 115.68 216.201C111.627 218.867 105.76 220.201 98.08 220.201H66.56V164.201H96.48C103.947 164.201 109.573 165.534 113.36 168.201C117.2 170.867 119.12 174.414 119.12 178.841C119.12 181.454 118.453 183.801 117.12 185.881C115.84 187.961 113.92 189.641 111.36 190.921ZM85.12 177.401V185.721H93.92C98.0267 185.721 100.08 184.334 100.08 181.561C100.08 178.787 98.0267 177.401 93.92 177.401H85.12ZM96.48 207.001C100.64 207.001 102.72 205.534 102.72 202.601C102.72 199.667 100.64 198.201 96.48 198.201H85.12V207.001H96.48ZM150.995 221.001C146.142 221.001 141.768 220.041 137.875 218.121C134.035 216.147 131.022 213.454 128.835 210.041C126.648 206.574 125.555 202.654 125.555 198.281C125.555 193.907 126.648 190.014 128.835 186.601C131.022 183.134 134.035 180.441 137.875 178.521C141.768 176.601 146.142 175.641 150.995 175.641C155.902 175.641 160.275 176.601 164.115 178.521C168.008 180.441 171.022 183.134 173.155 186.601C175.342 190.014 176.435 193.907 176.435 198.281C176.435 202.654 175.342 206.574 173.155 210.041C171.022 213.454 168.008 216.147 164.115 218.121C160.275 220.041 155.902 221.001 150.995 221.001ZM150.995 206.921C153.075 206.921 154.782 206.174 156.115 204.681C157.448 203.134 158.115 201.001 158.115 198.281C158.115 195.561 157.448 193.454 156.115 191.961C154.782 190.467 153.075 189.721 150.995 189.721C148.915 189.721 147.208 190.467 145.875 191.961C144.542 193.454 143.875 195.561 143.875 198.281C143.875 201.001 144.542 203.134 145.875 204.681C147.208 206.174 148.915 206.921 150.995 206.921ZM199.294 181.161C202.494 177.481 207.214 175.641 213.454 175.641V191.641C212.014 191.427 210.68 191.321 209.454 191.321C203.267 191.321 200.174 194.467 200.174 200.761V220.201H182.094V176.441H199.294V181.161ZM218.578 176.441H236.658V220.201H218.578V176.441ZM227.618 172.921C224.365 172.921 221.725 172.067 219.698 170.361C217.725 168.601 216.738 166.387 216.738 163.721C216.738 161.054 217.725 158.867 219.698 157.161C221.725 155.401 224.365 154.521 227.618 154.521C230.925 154.521 233.565 155.347 235.538 157.001C237.511 158.654 238.498 160.787 238.498 163.401C238.498 166.174 237.511 168.467 235.538 170.281C233.565 172.041 230.925 172.921 227.618 172.921ZM275.072 175.641C280.459 175.641 284.779 177.267 288.032 180.521C291.339 183.774 292.992 188.681 292.992 195.241V220.201H274.912V198.361C274.912 193.347 273.125 190.841 269.552 190.841C267.525 190.841 265.872 191.561 264.592 193.001C263.365 194.387 262.752 196.601 262.752 199.641V220.201H244.672V176.441H261.872V180.761C263.579 179.054 265.552 177.774 267.792 176.921C270.032 176.067 272.459 175.641 275.072 175.641ZM350.505 176.441V211.481C350.505 219.801 348.185 226.041 343.545 230.201C338.958 234.414 332.398 236.521 323.865 236.521C319.492 236.521 315.412 236.041 311.625 235.081C307.838 234.174 304.612 232.841 301.945 231.081L308.025 218.761C309.732 220.041 311.892 221.081 314.505 221.881C317.118 222.681 319.625 223.081 322.025 223.081C325.652 223.081 328.292 222.307 329.945 220.761C331.598 219.214 332.425 216.947 332.425 213.961V213.161C329.705 216.254 325.678 217.801 320.345 217.801C316.612 217.801 313.118 216.947 309.865 215.241C306.665 213.481 304.105 211.001 302.185 207.801C300.265 204.547 299.305 200.841 299.305 196.681C299.305 192.521 300.265 188.841 302.185 185.641C304.105 182.441 306.665 179.987 309.865 178.281C313.118 176.521 316.612 175.641 320.345 175.641C326.318 175.641 330.638 177.561 333.305 181.401V176.441H350.505ZM325.145 203.721C327.278 203.721 329.038 203.081 330.425 201.801C331.865 200.467 332.585 198.761 332.585 196.681C332.585 194.601 331.865 192.921 330.425 191.641C329.038 190.361 327.278 189.721 325.145 189.721C322.958 189.721 321.145 190.361 319.705 191.641C318.318 192.921 317.625 194.601 317.625 196.681C317.625 198.761 318.345 200.467 319.785 201.801C321.225 203.081 323.012 203.721 325.145 203.721ZM113.12 294.961V309.201H66.56V253.201H112.08V267.441H85.12V274.001H108.8V287.601H85.12V294.961H113.12ZM147.428 309.201L141.428 299.841L134.708 309.201H115.108L131.668 287.521L115.588 265.441H135.988L142.228 274.721L148.788 265.441H167.748L151.668 286.721L168.148 309.201H147.428ZM200.591 264.641C204.431 264.641 207.951 265.574 211.151 267.441C214.404 269.254 216.964 271.894 218.831 275.361C220.751 278.827 221.711 282.827 221.711 287.361C221.711 291.894 220.751 295.894 218.831 299.361C216.964 302.774 214.404 305.414 211.151 307.281C207.951 309.094 204.431 310.001 200.591 310.001C195.737 310.001 192.031 308.747 189.471 306.241V324.721H171.391V265.441H188.591V269.041C191.204 266.107 195.204 264.641 200.591 264.641ZM196.271 295.921C198.351 295.921 200.057 295.174 201.391 293.681C202.724 292.187 203.391 290.081 203.391 287.361C203.391 284.641 202.724 282.534 201.391 281.041C200.057 279.494 198.351 278.721 196.271 278.721C194.191 278.721 192.484 279.494 191.151 281.041C189.817 282.534 189.151 284.641 189.151 287.361C189.151 290.081 189.817 292.187 191.151 293.681C192.484 295.174 194.191 295.921 196.271 295.921ZM273.966 287.281C273.966 287.547 273.886 288.961 273.726 291.521H243.326C243.966 293.174 245.033 294.454 246.526 295.361C248.02 296.214 249.886 296.641 252.126 296.641C254.046 296.641 255.646 296.401 256.926 295.921C258.26 295.441 259.7 294.614 261.246 293.441L270.686 302.961C266.42 307.654 260.046 310.001 251.566 310.001C246.286 310.001 241.646 309.041 237.646 307.121C233.646 305.147 230.553 302.427 228.366 298.961C226.18 295.494 225.086 291.601 225.086 287.281C225.086 282.907 226.153 279.014 228.286 275.601C230.473 272.134 233.433 269.441 237.166 267.521C240.953 265.601 245.193 264.641 249.886 264.641C254.313 264.641 258.34 265.521 261.966 267.281C265.646 269.041 268.553 271.627 270.686 275.041C272.873 278.454 273.966 282.534 273.966 287.281ZM250.046 276.961C248.18 276.961 246.633 277.467 245.406 278.481C244.18 279.494 243.38 280.934 243.006 282.801H257.086C256.713 280.987 255.913 279.574 254.686 278.561C253.46 277.494 251.913 276.961 250.046 276.961ZM296.872 270.161C300.072 266.481 304.792 264.641 311.032 264.641V280.641C309.592 280.427 308.259 280.321 307.032 280.321C300.845 280.321 297.752 283.467 297.752 289.761V309.201H279.672V265.441H296.872V270.161ZM349.568 307.681C346.848 309.227 343.141 310.001 338.448 310.001C332.315 310.001 327.595 308.534 324.288 305.601C320.981 302.614 319.328 298.161 319.328 292.241V281.041H313.328V267.841H319.328V255.601H337.408V267.841H346.368V281.041H337.408V292.081C337.408 293.414 337.755 294.454 338.448 295.201C339.141 295.947 340.048 296.321 341.168 296.321C342.715 296.321 344.075 295.921 345.248 295.121L349.568 307.681ZM371.245 310.001C367.512 310.001 363.832 309.601 360.205 308.801C356.578 308.001 353.645 306.961 351.405 305.681L356.365 293.761C358.392 294.987 360.792 295.947 363.565 296.641C366.338 297.334 369.032 297.681 371.645 297.681C373.725 297.681 375.165 297.521 375.965 297.201C376.818 296.827 377.245 296.294 377.245 295.601C377.245 294.907 376.712 294.427 375.645 294.161C374.632 293.894 372.952 293.627 370.605 293.361C367.032 292.934 363.992 292.401 361.485 291.761C358.978 291.067 356.765 289.761 354.845 287.841C352.978 285.921 352.045 283.174 352.045 279.601C352.045 276.774 352.898 274.241 354.605 272.001C356.312 269.761 358.845 267.974 362.205 266.641C365.618 265.307 369.698 264.641 374.445 264.641C377.752 264.641 380.978 264.961 384.125 265.601C387.325 266.187 390.045 267.067 392.285 268.241L387.325 280.161C383.485 278.027 379.272 276.961 374.685 276.961C370.738 276.961 368.765 277.654 368.765 279.041C368.765 279.734 369.298 280.241 370.365 280.561C371.432 280.827 373.112 281.094 375.405 281.361C378.978 281.787 381.992 282.347 384.445 283.041C386.952 283.734 389.138 285.041 391.005 286.961C392.925 288.881 393.885 291.627 393.885 295.201C393.885 297.921 393.032 300.401 391.325 302.641C389.618 304.881 387.058 306.667 383.645 308.001C380.232 309.334 376.098 310.001 371.245 310.001Z" fill="white"/>
<path d="M69.14 379.201L62.85 355.401H67.508L71.792 374.339L76.824 355.401H81.618L86.514 374.339L90.798 355.401H95.49L89.03 379.201H83.862L79.136 361.555L74.274 379.201H69.14ZM102.43 379.609C100.98 379.609 99.7896 379.382 98.8603 378.929C97.9309 378.453 97.2396 377.829 96.7863 377.059C96.3329 376.288 96.1063 375.438 96.1063 374.509C96.1063 372.945 96.7183 371.675 97.9423 370.701C99.1663 369.726 101.002 369.239 103.45 369.239H107.734V368.831C107.734 367.675 107.406 366.825 106.748 366.281C106.091 365.737 105.275 365.465 104.3 365.465C103.416 365.465 102.646 365.68 101.988 366.111C101.331 366.519 100.923 367.131 100.764 367.947H96.5143C96.6276 366.723 97.0356 365.657 97.7383 364.751C98.4636 363.844 99.3929 363.153 100.526 362.677C101.66 362.178 102.929 361.929 104.334 361.929C106.737 361.929 108.63 362.529 110.012 363.731C111.395 364.932 112.086 366.632 112.086 368.831V379.201H108.38L107.972 376.481C107.474 377.387 106.771 378.135 105.864 378.725C104.98 379.314 103.836 379.609 102.43 379.609ZM103.416 376.209C104.663 376.209 105.626 375.801 106.306 374.985C107.009 374.169 107.451 373.16 107.632 371.959H103.926C102.77 371.959 101.943 372.174 101.444 372.605C100.946 373.013 100.696 373.523 100.696 374.135C100.696 374.792 100.946 375.302 101.444 375.665C101.943 376.027 102.6 376.209 103.416 376.209ZM123.521 379.201C121.753 379.201 120.336 378.77 119.271 377.909C118.206 377.047 117.673 375.517 117.673 373.319V365.975H114.783V362.337H117.673L118.183 357.815H122.025V362.337H126.581V365.975H122.025V373.353C122.025 374.169 122.195 374.735 122.535 375.053C122.898 375.347 123.51 375.495 124.371 375.495H126.479V379.201H123.521ZM138.08 379.609C136.38 379.609 134.872 379.246 133.558 378.521C132.243 377.795 131.212 376.775 130.464 375.461C129.716 374.146 129.342 372.627 129.342 370.905C129.342 369.159 129.704 367.607 130.43 366.247C131.178 364.887 132.198 363.833 133.49 363.085C134.804 362.314 136.346 361.929 138.114 361.929C139.768 361.929 141.23 362.291 142.5 363.017C143.769 363.742 144.755 364.739 145.458 366.009C146.183 367.255 146.546 368.649 146.546 370.191C146.546 370.44 146.534 370.701 146.512 370.973C146.512 371.245 146.5 371.528 146.478 371.823H133.66C133.75 373.137 134.204 374.169 135.02 374.917C135.858 375.665 136.867 376.039 138.046 376.039C138.93 376.039 139.666 375.846 140.256 375.461C140.868 375.053 141.321 374.531 141.616 373.897H146.036C145.718 374.962 145.186 375.937 144.438 376.821C143.712 377.682 142.806 378.362 141.718 378.861C140.652 379.359 139.44 379.609 138.08 379.609ZM138.114 365.465C137.048 365.465 136.108 365.771 135.292 366.383C134.476 366.972 133.954 367.879 133.728 369.103H142.126C142.058 367.992 141.65 367.108 140.902 366.451C140.154 365.793 139.224 365.465 138.114 365.465ZM150.206 379.201V362.337H154.082L154.49 365.499C155.102 364.411 155.929 363.549 156.972 362.915C158.037 362.257 159.284 361.929 160.712 361.929V366.519H159.488C158.536 366.519 157.686 366.666 156.938 366.961C156.19 367.255 155.601 367.765 155.17 368.491C154.762 369.216 154.558 370.225 154.558 371.517V379.201H150.206ZM171.89 379.201V355.401H181.444C183.915 355.401 185.796 355.979 187.088 357.135C188.403 358.268 189.06 359.73 189.06 361.521C189.06 363.017 188.652 364.218 187.836 365.125C187.043 366.009 186.068 366.609 184.912 366.927C186.272 367.199 187.394 367.879 188.278 368.967C189.162 370.032 189.604 371.279 189.604 372.707C189.604 374.588 188.924 376.141 187.564 377.365C186.204 378.589 184.277 379.201 181.784 379.201H171.89ZM176.242 365.397H180.798C182.022 365.397 182.963 365.113 183.62 364.547C184.277 363.98 184.606 363.175 184.606 362.133C184.606 361.135 184.277 360.353 183.62 359.787C182.985 359.197 182.022 358.903 180.73 358.903H176.242V365.397ZM176.242 375.665H181.104C182.396 375.665 183.393 375.37 184.096 374.781C184.821 374.169 185.184 373.319 185.184 372.231C185.184 371.12 184.81 370.247 184.062 369.613C183.314 368.978 182.305 368.661 181.036 368.661H176.242V375.665ZM201.329 379.609C199.697 379.609 198.224 379.235 196.909 378.487C195.617 377.739 194.586 376.707 193.815 375.393C193.067 374.055 192.693 372.514 192.693 370.769C192.693 369.023 193.079 367.493 193.849 366.179C194.62 364.841 195.651 363.799 196.943 363.051C198.258 362.303 199.731 361.929 201.363 361.929C202.973 361.929 204.423 362.303 205.715 363.051C207.03 363.799 208.061 364.841 208.809 366.179C209.58 367.493 209.965 369.023 209.965 370.769C209.965 372.514 209.58 374.055 208.809 375.393C208.061 376.707 207.03 377.739 205.715 378.487C204.401 379.235 202.939 379.609 201.329 379.609ZM201.329 375.835C202.463 375.835 203.449 375.415 204.287 374.577C205.126 373.715 205.545 372.446 205.545 370.769C205.545 369.091 205.126 367.833 204.287 366.995C203.449 366.133 202.474 365.703 201.363 365.703C200.207 365.703 199.21 366.133 198.371 366.995C197.555 367.833 197.147 369.091 197.147 370.769C197.147 372.446 197.555 373.715 198.371 374.577C199.21 375.415 200.196 375.835 201.329 375.835ZM213.856 379.201V362.337H217.732L218.14 365.499C218.752 364.411 219.58 363.549 220.622 362.915C221.688 362.257 222.934 361.929 224.362 361.929V366.519H223.138C222.186 366.519 221.336 366.666 220.588 366.961C219.84 367.255 219.251 367.765 218.82 368.491C218.412 369.216 218.208 370.225 218.208 371.517V379.201H213.856ZM229.683 359.719C228.89 359.719 228.232 359.481 227.711 359.005C227.212 358.529 226.963 357.928 226.963 357.203C226.963 356.477 227.212 355.888 227.711 355.435C228.232 354.959 228.89 354.721 229.683 354.721C230.476 354.721 231.122 354.959 231.621 355.435C232.142 355.888 232.403 356.477 232.403 357.203C232.403 357.928 232.142 358.529 231.621 359.005C231.122 359.481 230.476 359.719 229.683 359.719ZM227.507 379.201V362.337H231.859V379.201H227.507ZM236.401 379.201V362.337H240.243L240.583 365.193C241.105 364.195 241.853 363.402 242.827 362.813C243.825 362.223 244.992 361.929 246.329 361.929C248.415 361.929 250.035 362.586 251.191 363.901C252.347 365.215 252.925 367.142 252.925 369.681V379.201H248.573V370.089C248.573 368.638 248.279 367.527 247.689 366.757C247.1 365.986 246.182 365.601 244.935 365.601C243.711 365.601 242.703 366.031 241.909 366.893C241.139 367.754 240.753 368.955 240.753 370.497V379.201H236.401ZM264.227 374.169C263.411 374.169 262.652 374.078 261.949 373.897L260.691 375.155C261.076 375.359 261.598 375.529 262.255 375.665C262.912 375.801 263.978 375.937 265.451 376.073C267.695 376.277 269.327 376.809 270.347 377.671C271.367 378.532 271.877 379.722 271.877 381.241C271.877 382.238 271.605 383.179 271.061 384.063C270.517 384.969 269.678 385.695 268.545 386.239C267.412 386.805 265.961 387.089 264.193 387.089C261.79 387.089 259.852 386.635 258.379 385.729C256.906 384.845 256.169 383.507 256.169 381.717C256.169 380.198 256.906 378.883 258.379 377.773C257.926 377.569 257.529 377.353 257.189 377.127C256.872 376.9 256.588 376.662 256.339 376.413V375.631L259.297 372.503C257.982 371.347 257.325 369.862 257.325 368.049C257.325 366.915 257.597 365.884 258.141 364.955C258.708 364.025 259.501 363.289 260.521 362.745C261.541 362.201 262.776 361.929 264.227 361.929C265.179 361.929 266.063 362.065 266.879 362.337H273.271V364.989L270.381 365.193C270.834 366.054 271.061 367.006 271.061 368.049C271.061 369.182 270.789 370.213 270.245 371.143C269.701 372.072 268.908 372.809 267.865 373.353C266.845 373.897 265.632 374.169 264.227 374.169ZM264.227 370.837C265.111 370.837 265.836 370.599 266.403 370.123C266.992 369.647 267.287 368.967 267.287 368.083C267.287 367.199 266.992 366.519 266.403 366.043C265.836 365.567 265.111 365.329 264.227 365.329C263.298 365.329 262.55 365.567 261.983 366.043C261.416 366.519 261.133 367.199 261.133 368.083C261.133 368.967 261.416 369.647 261.983 370.123C262.55 370.599 263.298 370.837 264.227 370.837ZM260.147 381.275C260.147 382.113 260.532 382.737 261.303 383.145C262.096 383.575 263.06 383.791 264.193 383.791C265.281 383.791 266.165 383.564 266.845 383.111C267.525 382.68 267.865 382.091 267.865 381.343C267.865 380.731 267.638 380.221 267.185 379.813C266.754 379.405 265.882 379.155 264.567 379.065C263.638 378.997 262.776 378.895 261.983 378.759C261.326 379.121 260.85 379.518 260.555 379.949C260.283 380.379 260.147 380.821 260.147 381.275ZM286.892 359.719C286.099 359.719 285.441 359.481 284.92 359.005C284.421 358.529 284.172 357.928 284.172 357.203C284.172 356.477 284.421 355.888 284.92 355.435C285.441 354.959 286.099 354.721 286.892 354.721C287.685 354.721 288.331 354.959 288.83 355.435C289.351 355.888 289.612 356.477 289.612 357.203C289.612 357.928 289.351 358.529 288.83 359.005C288.331 359.481 287.685 359.719 286.892 359.719ZM284.716 379.201V362.337H289.068V379.201H284.716ZM293.61 379.201V362.337H297.452L297.792 365.193C298.314 364.195 299.062 363.402 300.036 362.813C301.034 362.223 302.201 361.929 303.538 361.929C305.624 361.929 307.244 362.586 308.4 363.901C309.556 365.215 310.134 367.142 310.134 369.681V379.201H305.782V370.089C305.782 368.638 305.488 367.527 304.898 366.757C304.309 365.986 303.391 365.601 302.144 365.601C300.92 365.601 299.912 366.031 299.118 366.893C298.348 367.754 297.962 368.955 297.962 370.497V379.201H293.61ZM329.402 379.201L320.698 355.401H325.356L332.088 374.747L338.854 355.401H343.444L334.74 379.201H329.402ZM348.517 359.719C347.724 359.719 347.066 359.481 346.545 359.005C346.046 358.529 345.797 357.928 345.797 357.203C345.797 356.477 346.046 355.888 346.545 355.435C347.066 354.959 347.724 354.721 348.517 354.721C349.31 354.721 349.956 354.959 350.455 355.435C350.976 355.888 351.237 356.477 351.237 357.203C351.237 357.928 350.976 358.529 350.455 359.005C349.956 359.481 349.31 359.719 348.517 359.719ZM346.341 379.201V362.337H350.693V379.201H346.341ZM363.497 379.609C361.775 379.609 360.256 379.235 358.941 378.487C357.627 377.739 356.584 376.696 355.813 375.359C355.065 374.021 354.691 372.491 354.691 370.769C354.691 369.046 355.065 367.516 355.813 366.179C356.584 364.841 357.627 363.799 358.941 363.051C360.256 362.303 361.775 361.929 363.497 361.929C365.651 361.929 367.464 362.495 368.937 363.629C370.411 364.739 371.351 366.281 371.759 368.253H367.169C366.943 367.437 366.489 366.802 365.809 366.349C365.152 365.873 364.37 365.635 363.463 365.635C362.262 365.635 361.242 366.088 360.403 366.995C359.565 367.901 359.145 369.159 359.145 370.769C359.145 372.378 359.565 373.636 360.403 374.543C361.242 375.449 362.262 375.903 363.463 375.903C364.37 375.903 365.152 375.676 365.809 375.223C366.489 374.769 366.943 374.123 367.169 373.285H371.759C371.351 375.189 370.411 376.719 368.937 377.875C367.464 379.031 365.651 379.609 363.497 379.609ZM382.904 379.201C381.136 379.201 379.719 378.77 378.654 377.909C377.588 377.047 377.056 375.517 377.056 373.319V365.975H374.166V362.337H377.056L377.566 357.815H381.408V362.337H385.964V365.975H381.408V373.353C381.408 374.169 381.578 374.735 381.918 375.053C382.28 375.347 382.892 375.495 383.754 375.495H385.862V379.201H382.904ZM397.361 379.609C395.729 379.609 394.255 379.235 392.941 378.487C391.649 377.739 390.617 376.707 389.847 375.393C389.099 374.055 388.725 372.514 388.725 370.769C388.725 369.023 389.11 367.493 389.881 366.179C390.651 364.841 391.683 363.799 392.975 363.051C394.289 362.303 395.763 361.929 397.395 361.929C399.004 361.929 400.455 362.303 401.747 363.051C403.061 363.799 404.093 364.841 404.841 366.179C405.611 367.493 405.997 369.023 405.997 370.769C405.997 372.514 405.611 374.055 404.841 375.393C404.093 376.707 403.061 377.739 401.747 378.487C400.432 379.235 398.97 379.609 397.361 379.609ZM397.361 375.835C398.494 375.835 399.48 375.415 400.319 374.577C401.157 373.715 401.577 372.446 401.577 370.769C401.577 369.091 401.157 367.833 400.319 366.995C399.48 366.133 398.505 365.703 397.395 365.703C396.239 365.703 395.241 366.133 394.403 366.995C393.587 367.833 393.179 369.091 393.179 370.769C393.179 372.446 393.587 373.715 394.403 374.577C395.241 375.415 396.227 375.835 397.361 375.835ZM409.888 379.201V362.337H413.764L414.172 365.499C414.784 364.411 415.611 363.549 416.654 362.915C417.719 362.257 418.966 361.929 420.394 361.929V366.519H419.17C418.218 366.519 417.368 366.666 416.62 366.961C415.872 367.255 415.282 367.765 414.852 368.491C414.444 369.216 414.24 370.225 414.24 371.517V379.201H409.888ZM425.714 359.719C424.921 359.719 424.264 359.481 423.742 359.005C423.244 358.529 422.994 357.928 422.994 357.203C422.994 356.477 423.244 355.888 423.742 355.435C424.264 354.959 424.921 354.721 425.714 354.721C426.508 354.721 427.154 354.959 427.652 355.435C428.174 355.888 428.434 356.477 428.434 357.203C428.434 357.928 428.174 358.529 427.652 359.005C427.154 359.481 426.508 359.719 425.714 359.719ZM423.538 379.201V362.337H427.89V379.201H423.538ZM438.247 379.609C436.796 379.609 435.606 379.382 434.677 378.929C433.747 378.453 433.056 377.829 432.603 377.059C432.149 376.288 431.923 375.438 431.923 374.509C431.923 372.945 432.535 371.675 433.759 370.701C434.983 369.726 436.819 369.239 439.267 369.239H443.551V368.831C443.551 367.675 443.222 366.825 442.565 366.281C441.907 365.737 441.091 365.465 440.117 365.465C439.233 365.465 438.462 365.68 437.805 366.111C437.147 366.519 436.739 367.131 436.581 367.947H432.331C432.444 366.723 432.852 365.657 433.555 364.751C434.28 363.844 435.209 363.153 436.343 362.677C437.476 362.178 438.745 361.929 440.151 361.929C442.553 361.929 444.446 362.529 445.829 363.731C447.211 364.932 447.903 366.632 447.903 368.831V379.201H444.197L443.789 376.481C443.29 377.387 442.587 378.135 441.681 378.725C440.797 379.314 439.652 379.609 438.247 379.609ZM439.233 376.209C440.479 376.209 441.443 375.801 442.123 374.985C442.825 374.169 443.267 373.16 443.449 371.959H439.743C438.587 371.959 437.759 372.174 437.261 372.605C436.762 373.013 436.513 373.523 436.513 374.135C436.513 374.792 436.762 375.302 437.261 375.665C437.759 376.027 438.417 376.209 439.233 376.209Z" fill="white"/>
<rect x="62" y="414.201" width="380" height="60" rx="30" fill="#033A90"/>
<path d="M91.14 451.441C90.1133 451.441 89.2067 451.267 88.42 450.921C87.6333 450.561 87.0133 450.054 86.56 449.401C86.1067 448.734 85.8733 447.927 85.86 446.981H88.56C88.5867 447.634 88.82 448.187 89.26 448.641C89.7133 449.081 90.3333 449.301 91.12 449.301C91.8 449.301 92.34 449.141 92.74 448.821C93.14 448.487 93.34 448.047 93.34 447.501C93.34 446.927 93.16 446.481 92.8 446.161C92.4533 445.841 91.9867 445.581 91.4 445.381C90.8133 445.181 90.1867 444.967 89.52 444.741C88.44 444.367 87.6133 443.887 87.04 443.301C86.48 442.714 86.2 441.934 86.2 440.961C86.1867 440.134 86.38 439.427 86.78 438.841C87.1933 438.241 87.7533 437.781 88.46 437.461C89.1667 437.127 89.98 436.961 90.9 436.961C91.8333 436.961 92.6533 437.127 93.36 437.461C94.08 437.794 94.64 438.261 95.04 438.861C95.4533 439.461 95.6733 440.174 95.7 441.001H92.96C92.9467 440.507 92.7533 440.074 92.38 439.701C92.02 439.314 91.5133 439.121 90.86 439.121C90.3 439.107 89.8267 439.247 89.44 439.541C89.0667 439.821 88.88 440.234 88.88 440.781C88.88 441.247 89.0267 441.621 89.32 441.901C89.6133 442.167 90.0133 442.394 90.52 442.581C91.0267 442.767 91.6067 442.967 92.26 443.181C92.9533 443.421 93.5867 443.701 94.16 444.021C94.7333 444.341 95.1933 444.767 95.54 445.301C95.8867 445.821 96.06 446.494 96.06 447.321C96.06 448.054 95.8733 448.734 95.5 449.361C95.1267 449.987 94.5733 450.494 93.84 450.881C93.1067 451.254 92.2067 451.441 91.14 451.441ZM103.094 451.441C102.08 451.441 101.187 451.221 100.414 450.781C99.6403 450.341 99.0269 449.727 98.5736 448.941C98.1336 448.154 97.9136 447.254 97.9136 446.241C97.9136 445.227 98.1336 444.327 98.5736 443.541C99.0269 442.754 99.6403 442.141 100.414 441.701C101.187 441.261 102.08 441.041 103.094 441.041C104.36 441.041 105.427 441.374 106.294 442.041C107.16 442.694 107.714 443.601 107.954 444.761H105.254C105.12 444.281 104.854 443.907 104.454 443.641C104.067 443.361 103.607 443.221 103.074 443.221C102.367 443.221 101.767 443.487 101.274 444.021C100.78 444.554 100.534 445.294 100.534 446.241C100.534 447.187 100.78 447.927 101.274 448.461C101.767 448.994 102.367 449.261 103.074 449.261C103.607 449.261 104.067 449.127 104.454 448.861C104.854 448.594 105.12 448.214 105.254 447.721H107.954C107.714 448.841 107.16 449.741 106.294 450.421C105.427 451.101 104.36 451.441 103.094 451.441ZM110.226 451.201V436.801H112.786V442.801C113.119 442.254 113.566 441.827 114.126 441.521C114.699 441.201 115.352 441.041 116.086 441.041C117.312 441.041 118.259 441.427 118.926 442.201C119.606 442.974 119.946 444.107 119.946 445.601V451.201H117.406V445.841C117.406 444.987 117.232 444.334 116.886 443.881C116.552 443.427 116.019 443.201 115.286 443.201C114.566 443.201 113.966 443.454 113.486 443.961C113.019 444.467 112.786 445.174 112.786 446.081V451.201H110.226ZM127.214 451.441C126.214 451.441 125.327 451.227 124.554 450.801C123.78 450.374 123.174 449.774 122.734 449.001C122.294 448.227 122.074 447.334 122.074 446.321C122.074 445.294 122.287 444.381 122.714 443.581C123.154 442.781 123.754 442.161 124.514 441.721C125.287 441.267 126.194 441.041 127.234 441.041C128.207 441.041 129.067 441.254 129.814 441.681C130.56 442.107 131.14 442.694 131.554 443.441C131.98 444.174 132.194 444.994 132.194 445.901C132.194 446.047 132.187 446.201 132.174 446.361C132.174 446.521 132.167 446.687 132.154 446.861H124.614C124.667 447.634 124.934 448.241 125.414 448.681C125.907 449.121 126.5 449.341 127.194 449.341C127.714 449.341 128.147 449.227 128.494 449.001C128.854 448.761 129.12 448.454 129.294 448.081H131.894C131.707 448.707 131.394 449.281 130.954 449.801C130.527 450.307 129.994 450.707 129.354 451.001C128.727 451.294 128.014 451.441 127.214 451.441ZM127.234 443.121C126.607 443.121 126.054 443.301 125.574 443.661C125.094 444.007 124.787 444.541 124.654 445.261H129.594C129.554 444.607 129.314 444.087 128.874 443.701C128.434 443.314 127.887 443.121 127.234 443.121ZM138.907 451.441C137.974 451.441 137.14 451.214 136.407 450.761C135.674 450.307 135.094 449.687 134.667 448.901C134.24 448.114 134.027 447.221 134.027 446.221C134.027 445.221 134.24 444.334 134.667 443.561C135.094 442.774 135.674 442.161 136.407 441.721C137.14 441.267 137.974 441.041 138.907 441.041C139.654 441.041 140.307 441.181 140.867 441.461C141.427 441.741 141.88 442.134 142.227 442.641V436.801H144.787V451.201H142.507L142.227 449.781C141.907 450.221 141.48 450.607 140.947 450.941C140.427 451.274 139.747 451.441 138.907 451.441ZM139.447 449.201C140.274 449.201 140.947 448.927 141.467 448.381C142 447.821 142.267 447.107 142.267 446.241C142.267 445.374 142 444.667 141.467 444.121C140.947 443.561 140.274 443.281 139.447 443.281C138.634 443.281 137.96 443.554 137.427 444.101C136.894 444.647 136.627 445.354 136.627 446.221C136.627 447.087 136.894 447.801 137.427 448.361C137.96 448.921 138.634 449.201 139.447 449.201ZM151.114 451.441C149.874 451.441 148.914 451.054 148.234 450.281C147.567 449.507 147.234 448.374 147.234 446.881V441.281H149.774V446.641C149.774 447.494 149.947 448.147 150.294 448.601C150.64 449.054 151.187 449.281 151.934 449.281C152.64 449.281 153.22 449.027 153.674 448.521C154.14 448.014 154.374 447.307 154.374 446.401V441.281H156.934V451.201H154.674L154.474 449.521C154.167 450.107 153.72 450.574 153.134 450.921C152.56 451.267 151.887 451.441 151.114 451.441ZM159.562 451.201V436.801H162.122V451.201H159.562ZM169.558 451.441C168.558 451.441 167.671 451.227 166.898 450.801C166.124 450.374 165.518 449.774 165.078 449.001C164.638 448.227 164.418 447.334 164.418 446.321C164.418 445.294 164.631 444.381 165.058 443.581C165.498 442.781 166.098 442.161 166.858 441.721C167.631 441.267 168.538 441.041 169.578 441.041C170.551 441.041 171.411 441.254 172.158 441.681C172.904 442.107 173.484 442.694 173.898 443.441C174.324 444.174 174.538 444.994 174.538 445.901C174.538 446.047 174.531 446.201 174.518 446.361C174.518 446.521 174.511 446.687 174.498 446.861H166.958C167.011 447.634 167.278 448.241 167.758 448.681C168.251 449.121 168.844 449.341 169.538 449.341C170.058 449.341 170.491 449.227 170.838 449.001C171.198 448.761 171.464 448.454 171.638 448.081H174.238C174.051 448.707 173.738 449.281 173.298 449.801C172.871 450.307 172.338 450.707 171.698 451.001C171.071 451.294 170.358 451.441 169.558 451.441ZM169.578 443.121C168.951 443.121 168.398 443.301 167.918 443.661C167.438 444.007 167.131 444.541 166.998 445.261H171.938C171.898 444.607 171.658 444.087 171.218 443.701C170.778 443.314 170.231 443.121 169.578 443.121ZM180.616 451.201L185.736 437.201H188.616L193.736 451.201H191.016L189.896 447.961H184.436L183.296 451.201H180.616ZM185.136 445.961H189.196L187.156 440.141L185.136 445.961ZM200.305 451.201V437.201H209.345V439.261H202.865V443.181H208.105V445.201H202.865V451.201H200.305ZM211.261 451.201V441.281H213.541L213.781 443.141C214.141 442.501 214.628 441.994 215.241 441.621C215.868 441.234 216.601 441.041 217.441 441.041V443.741H216.721C216.161 443.741 215.661 443.827 215.221 444.001C214.781 444.174 214.434 444.474 214.181 444.901C213.941 445.327 213.821 445.921 213.821 446.681V451.201H211.261ZM223.835 451.441C222.835 451.441 221.948 451.227 221.175 450.801C220.402 450.374 219.795 449.774 219.355 449.001C218.915 448.227 218.695 447.334 218.695 446.321C218.695 445.294 218.908 444.381 219.335 443.581C219.775 442.781 220.375 442.161 221.135 441.721C221.908 441.267 222.815 441.041 223.855 441.041C224.828 441.041 225.688 441.254 226.435 441.681C227.182 442.107 227.762 442.694 228.175 443.441C228.602 444.174 228.815 444.994 228.815 445.901C228.815 446.047 228.808 446.201 228.795 446.361C228.795 446.521 228.788 446.687 228.775 446.861H221.235C221.288 447.634 221.555 448.241 222.035 448.681C222.528 449.121 223.122 449.341 223.815 449.341C224.335 449.341 224.768 449.227 225.115 449.001C225.475 448.761 225.742 448.454 225.915 448.081H228.515C228.328 448.707 228.015 449.281 227.575 449.801C227.148 450.307 226.615 450.707 225.975 451.001C225.348 451.294 224.635 451.441 223.835 451.441ZM223.855 443.121C223.228 443.121 222.675 443.301 222.195 443.661C221.715 444.007 221.408 444.541 221.275 445.261H226.215C226.175 444.607 225.935 444.087 225.495 443.701C225.055 443.314 224.508 443.121 223.855 443.121ZM235.788 451.441C234.788 451.441 233.901 451.227 233.128 450.801C232.355 450.374 231.748 449.774 231.308 449.001C230.868 448.227 230.648 447.334 230.648 446.321C230.648 445.294 230.861 444.381 231.288 443.581C231.728 442.781 232.328 442.161 233.088 441.721C233.861 441.267 234.768 441.041 235.808 441.041C236.781 441.041 237.641 441.254 238.388 441.681C239.135 442.107 239.715 442.694 240.128 443.441C240.555 444.174 240.768 444.994 240.768 445.901C240.768 446.047 240.761 446.201 240.748 446.361C240.748 446.521 240.741 446.687 240.728 446.861H233.188C233.241 447.634 233.508 448.241 233.988 448.681C234.481 449.121 235.075 449.341 235.768 449.341C236.288 449.341 236.721 449.227 237.068 449.001C237.428 448.761 237.695 448.454 237.868 448.081H240.468C240.281 448.707 239.968 449.281 239.528 449.801C239.101 450.307 238.568 450.707 237.928 451.001C237.301 451.294 236.588 451.441 235.788 451.441ZM235.808 443.121C235.181 443.121 234.628 443.301 234.148 443.661C233.668 444.007 233.361 444.541 233.228 445.261H238.168C238.128 444.607 237.888 444.087 237.448 443.701C237.008 443.314 236.461 443.121 235.808 443.121ZM254.307 451.441C252.907 451.441 251.68 451.134 250.627 450.521C249.587 449.907 248.767 449.061 248.167 447.981C247.58 446.887 247.287 445.627 247.287 444.201C247.287 442.774 247.58 441.521 248.167 440.441C248.767 439.347 249.587 438.494 250.627 437.881C251.68 437.267 252.907 436.961 254.307 436.961C255.693 436.961 256.913 437.267 257.967 437.881C259.02 438.494 259.84 439.347 260.427 440.441C261.013 441.521 261.307 442.774 261.307 444.201C261.307 445.627 261.013 446.887 260.427 447.981C259.84 449.061 259.02 449.907 257.967 450.521C256.913 451.134 255.693 451.441 254.307 451.441ZM254.307 449.141C255.64 449.141 256.7 448.701 257.487 447.821C258.287 446.941 258.687 445.734 258.687 444.201C258.687 442.667 258.287 441.461 257.487 440.581C256.7 439.701 255.64 439.261 254.307 439.261C252.973 439.261 251.907 439.701 251.107 440.581C250.307 441.461 249.907 442.667 249.907 444.201C249.907 445.734 250.307 446.941 251.107 447.821C251.907 448.701 252.973 449.141 254.307 449.141ZM263.507 451.201V441.281H265.767L265.967 442.961C266.274 442.374 266.714 441.907 267.287 441.561C267.874 441.214 268.56 441.041 269.347 441.041C270.574 441.041 271.527 441.427 272.207 442.201C272.887 442.974 273.227 444.107 273.227 445.601V451.201H270.667V445.841C270.667 444.987 270.494 444.334 270.147 443.881C269.8 443.427 269.26 443.201 268.527 443.201C267.807 443.201 267.214 443.454 266.747 443.961C266.294 444.467 266.067 445.174 266.067 446.081V451.201H263.507ZM279.775 451.441C278.895 451.441 278.122 451.301 277.455 451.021C276.788 450.727 276.255 450.327 275.855 449.821C275.455 449.314 275.215 448.727 275.135 448.061H277.715C277.795 448.447 278.008 448.781 278.355 449.061C278.715 449.327 279.175 449.461 279.735 449.461C280.295 449.461 280.702 449.347 280.955 449.121C281.222 448.894 281.355 448.634 281.355 448.341C281.355 447.914 281.168 447.627 280.795 447.481C280.422 447.321 279.902 447.167 279.235 447.021C278.808 446.927 278.375 446.814 277.935 446.681C277.495 446.547 277.088 446.381 276.715 446.181C276.355 445.967 276.062 445.701 275.835 445.381C275.608 445.047 275.495 444.641 275.495 444.161C275.495 443.281 275.842 442.541 276.535 441.941C277.242 441.341 278.228 441.041 279.495 441.041C280.668 441.041 281.602 441.314 282.295 441.861C283.002 442.407 283.422 443.161 283.555 444.121H281.135C280.988 443.387 280.435 443.021 279.475 443.021C278.995 443.021 278.622 443.114 278.355 443.301C278.102 443.487 277.975 443.721 277.975 444.001C277.975 444.294 278.168 444.527 278.555 444.701C278.942 444.874 279.455 445.034 280.095 445.181C280.788 445.341 281.422 445.521 281.995 445.721C282.582 445.907 283.048 446.194 283.395 446.581C283.742 446.954 283.915 447.494 283.915 448.201C283.928 448.814 283.768 449.367 283.435 449.861C283.102 450.354 282.622 450.741 281.995 451.021C281.368 451.301 280.628 451.441 279.775 451.441ZM287.563 439.741C287.096 439.741 286.709 439.601 286.403 439.321C286.109 439.041 285.963 438.687 285.963 438.261C285.963 437.834 286.109 437.487 286.403 437.221C286.709 436.941 287.096 436.801 287.563 436.801C288.029 436.801 288.409 436.941 288.703 437.221C289.009 437.487 289.163 437.834 289.163 438.261C289.163 438.687 289.009 439.041 288.703 439.321C288.409 439.601 288.029 439.741 287.563 439.741ZM286.283 451.201V441.281H288.843V451.201H286.283ZM295.935 451.201C294.895 451.201 294.062 450.947 293.435 450.441C292.808 449.934 292.495 449.034 292.495 447.741V443.421H290.795V441.281H292.495L292.795 438.621H295.055V441.281H297.735V443.421H295.055V447.761C295.055 448.241 295.155 448.574 295.355 448.761C295.568 448.934 295.928 449.021 296.435 449.021H297.675V451.201H295.935ZM304.499 451.441C303.499 451.441 302.612 451.227 301.839 450.801C301.066 450.374 300.459 449.774 300.019 449.001C299.579 448.227 299.359 447.334 299.359 446.321C299.359 445.294 299.572 444.381 299.999 443.581C300.439 442.781 301.039 442.161 301.799 441.721C302.572 441.267 303.479 441.041 304.519 441.041C305.492 441.041 306.352 441.254 307.099 441.681C307.846 442.107 308.426 442.694 308.839 443.441C309.266 444.174 309.479 444.994 309.479 445.901C309.479 446.047 309.472 446.201 309.459 446.361C309.459 446.521 309.452 446.687 309.439 446.861H301.899C301.952 447.634 302.219 448.241 302.699 448.681C303.192 449.121 303.786 449.341 304.479 449.341C304.999 449.341 305.432 449.227 305.779 449.001C306.139 448.761 306.406 448.454 306.579 448.081H309.179C308.992 448.707 308.679 449.281 308.239 449.801C307.812 450.307 307.279 450.707 306.639 451.001C306.012 451.294 305.299 451.441 304.499 451.441ZM304.519 443.121C303.892 443.121 303.339 443.301 302.859 443.661C302.379 444.007 302.072 444.541 301.939 445.261H306.879C306.839 444.607 306.599 444.087 306.159 443.701C305.719 443.314 305.172 443.121 304.519 443.121ZM316.458 451.201V437.201H319.018V451.201H316.458ZM321.671 451.201V441.281H323.931L324.131 442.961C324.438 442.374 324.878 441.907 325.451 441.561C326.038 441.214 326.724 441.041 327.511 441.041C328.738 441.041 329.691 441.427 330.371 442.201C331.051 442.974 331.391 444.107 331.391 445.601V451.201H328.831V445.841C328.831 444.987 328.658 444.334 328.311 443.881C327.964 443.427 327.424 443.201 326.691 443.201C325.971 443.201 325.378 443.454 324.911 443.961C324.458 444.467 324.231 445.174 324.231 446.081V451.201H321.671ZM337.939 451.441C337.059 451.441 336.286 451.301 335.619 451.021C334.952 450.727 334.419 450.327 334.019 449.821C333.619 449.314 333.379 448.727 333.299 448.061H335.879C335.959 448.447 336.172 448.781 336.519 449.061C336.879 449.327 337.339 449.461 337.899 449.461C338.459 449.461 338.866 449.347 339.119 449.121C339.386 448.894 339.519 448.634 339.519 448.341C339.519 447.914 339.332 447.627 338.959 447.481C338.586 447.321 338.066 447.167 337.399 447.021C336.972 446.927 336.539 446.814 336.099 446.681C335.659 446.547 335.252 446.381 334.879 446.181C334.519 445.967 334.226 445.701 333.999 445.381C333.772 445.047 333.659 444.641 333.659 444.161C333.659 443.281 334.006 442.541 334.699 441.941C335.406 441.341 336.392 441.041 337.659 441.041C338.832 441.041 339.766 441.314 340.459 441.861C341.166 442.407 341.586 443.161 341.719 444.121H339.299C339.152 443.387 338.599 443.021 337.639 443.021C337.159 443.021 336.786 443.114 336.519 443.301C336.266 443.487 336.139 443.721 336.139 444.001C336.139 444.294 336.332 444.527 336.719 444.701C337.106 444.874 337.619 445.034 338.259 445.181C338.952 445.341 339.586 445.521 340.159 445.721C340.746 445.907 341.212 446.194 341.559 446.581C341.906 446.954 342.079 447.494 342.079 448.201C342.092 448.814 341.932 449.367 341.599 449.861C341.266 450.354 340.786 450.741 340.159 451.021C339.532 451.301 338.792 451.441 337.939 451.441ZM344.347 455.601V441.281H346.627L346.907 442.701C347.227 442.261 347.647 441.874 348.167 441.541C348.7 441.207 349.387 441.041 350.227 441.041C351.16 441.041 351.994 441.267 352.727 441.721C353.46 442.174 354.04 442.794 354.467 443.581C354.894 444.367 355.107 445.261 355.107 446.261C355.107 447.261 354.894 448.154 354.467 448.941C354.04 449.714 353.46 450.327 352.727 450.781C351.994 451.221 351.16 451.441 350.227 451.441C349.48 451.441 348.827 451.301 348.267 451.021C347.707 450.741 347.254 450.347 346.907 449.841V455.601H344.347ZM349.687 449.201C350.5 449.201 351.174 448.927 351.707 448.381C352.24 447.834 352.507 447.127 352.507 446.261C352.507 445.394 352.24 444.681 351.707 444.121C351.174 443.561 350.5 443.281 349.687 443.281C348.86 443.281 348.18 443.561 347.647 444.121C347.127 444.667 346.867 445.374 346.867 446.241C346.867 447.107 347.127 447.821 347.647 448.381C348.18 448.927 348.86 449.201 349.687 449.201ZM362.214 451.441C361.214 451.441 360.327 451.227 359.554 450.801C358.78 450.374 358.174 449.774 357.734 449.001C357.294 448.227 357.074 447.334 357.074 446.321C357.074 445.294 357.287 444.381 357.714 443.581C358.154 442.781 358.754 442.161 359.514 441.721C360.287 441.267 361.194 441.041 362.234 441.041C363.207 441.041 364.067 441.254 364.814 441.681C365.56 442.107 366.14 442.694 366.554 443.441C366.98 444.174 367.194 444.994 367.194 445.901C367.194 446.047 367.187 446.201 367.174 446.361C367.174 446.521 367.167 446.687 367.154 446.861H359.614C359.667 447.634 359.934 448.241 360.414 448.681C360.907 449.121 361.5 449.341 362.194 449.341C362.714 449.341 363.147 449.227 363.494 449.001C363.854 448.761 364.12 448.454 364.294 448.081H366.894C366.707 448.707 366.394 449.281 365.954 449.801C365.527 450.307 364.994 450.707 364.354 451.001C363.727 451.294 363.014 451.441 362.214 451.441ZM362.234 443.121C361.607 443.121 361.054 443.301 360.574 443.661C360.094 444.007 359.787 444.541 359.654 445.261H364.594C364.554 444.607 364.314 444.087 363.874 443.701C363.434 443.314 362.887 443.121 362.234 443.121ZM374.207 451.441C373.194 451.441 372.3 451.221 371.527 450.781C370.754 450.341 370.14 449.727 369.687 448.941C369.247 448.154 369.027 447.254 369.027 446.241C369.027 445.227 369.247 444.327 369.687 443.541C370.14 442.754 370.754 442.141 371.527 441.701C372.3 441.261 373.194 441.041 374.207 441.041C375.474 441.041 376.54 441.374 377.407 442.041C378.274 442.694 378.827 443.601 379.067 444.761H376.367C376.234 444.281 375.967 443.907 375.567 443.641C375.18 443.361 374.72 443.221 374.187 443.221C373.48 443.221 372.88 443.487 372.387 444.021C371.894 444.554 371.647 445.294 371.647 446.241C371.647 447.187 371.894 447.927 372.387 448.461C372.88 448.994 373.48 449.261 374.187 449.261C374.72 449.261 375.18 449.127 375.567 448.861C375.967 448.594 376.234 448.214 376.367 447.721H379.067C378.827 448.841 378.274 449.741 377.407 450.421C376.54 451.101 375.474 451.441 374.207 451.441ZM385.622 451.201C384.582 451.201 383.749 450.947 383.122 450.441C382.496 449.934 382.182 449.034 382.182 447.741V443.421H380.482V441.281H382.182L382.482 438.621H384.742V441.281H387.422V443.421H384.742V447.761C384.742 448.241 384.842 448.574 385.042 448.761C385.256 448.934 385.616 449.021 386.122 449.021H387.362V451.201H385.622ZM391 439.741C390.534 439.741 390.147 439.601 389.84 439.321C389.547 439.041 389.4 438.687 389.4 438.261C389.4 437.834 389.547 437.487 389.84 437.221C390.147 436.941 390.534 436.801 391 436.801C391.467 436.801 391.847 436.941 392.14 437.221C392.447 437.487 392.6 437.834 392.6 438.261C392.6 438.687 392.447 439.041 392.14 439.321C391.847 439.601 391.467 439.741 391 439.741ZM389.72 451.201V441.281H392.28V451.201H389.72ZM399.712 451.441C398.752 451.441 397.886 451.221 397.112 450.781C396.352 450.341 395.746 449.734 395.292 448.961C394.852 448.174 394.632 447.267 394.632 446.241C394.632 445.214 394.859 444.314 395.312 443.541C395.766 442.754 396.372 442.141 397.132 441.701C397.906 441.261 398.772 441.041 399.732 441.041C400.679 441.041 401.532 441.261 402.292 441.701C403.066 442.141 403.672 442.754 404.112 443.541C404.566 444.314 404.792 445.214 404.792 446.241C404.792 447.267 404.566 448.174 404.112 448.961C403.672 449.734 403.066 450.341 402.292 450.781C401.519 451.221 400.659 451.441 399.712 451.441ZM399.712 449.221C400.379 449.221 400.959 448.974 401.452 448.481C401.946 447.974 402.192 447.227 402.192 446.241C402.192 445.254 401.946 444.514 401.452 444.021C400.959 443.514 400.386 443.261 399.732 443.261C399.052 443.261 398.466 443.514 397.972 444.021C397.492 444.514 397.252 445.254 397.252 446.241C397.252 447.227 397.492 447.974 397.972 448.481C398.466 448.974 399.046 449.221 399.712 449.221ZM407.081 451.201V441.281H409.341L409.541 442.961C409.848 442.374 410.288 441.907 410.861 441.561C411.448 441.214 412.135 441.041 412.921 441.041C414.148 441.041 415.101 441.427 415.781 442.201C416.461 442.974 416.801 444.107 416.801 445.601V451.201H414.241V445.841C414.241 444.987 414.068 444.334 413.721 443.881C413.375 443.427 412.835 443.201 412.101 443.201C411.381 443.201 410.788 443.454 410.321 443.961C409.868 444.467 409.641 445.174 409.641 446.081V451.201H407.081Z" fill="white"/>
</svg>
