<svg width="15" height="18" viewBox="0 0 15 18" fill="none" xmlns="http://www.w3.org/2000/svg">
<path d="M14.7273 7.36364C14.7273 13.0909 7.36364 18 7.36364 18C7.36364 18 0 13.0909 0 7.36364C2.91013e-08 5.41068 0.775809 3.53771 2.15676 2.15676C3.53771 0.775809 5.41068 0 7.36364 0C9.31659 0 11.1896 0.775809 12.5705 2.15676C13.9515 3.53771 14.7273 5.41068 14.7273 7.36364Z" fill="white"/>
<path d="M7.36372 9.81827C8.71933 9.81827 9.81827 8.71933 9.81827 7.36372C9.81827 6.00812 8.71933 4.90918 7.36372 4.90918C6.00812 4.90918 4.90918 6.00812 4.90918 7.36372C4.90918 8.71933 6.00812 9.81827 7.36372 9.81827Z" fill="#247CCA"/>
</svg>
