<svg width="19" height="21" viewBox="0 0 19 21" fill="none" xmlns="http://www.w3.org/2000/svg">
<path d="M9 1.00004C8.64445 0.720039 7.35556 0.720039 7.00001 1.00004C5.12348 2.45004 -0.0296242 7.49004 5.17046e-06 13C5.17046e-06 17.46 3.58522 21 8 21C12.4148 21 16 17.46 16 13C16.0099 7.57004 10.8667 2.46004 9 1.00004Z" fill="white"/>
<path d="M14 1.00002C13.8222 0.86002 14.1778 0.86002 14 1.00002C13.0617 1.72502 9.98518 4.24502 9.99999 7.00002C9.99999 9.23002 11.7926 11 14 11C16.2074 11 18 9.23002 18 7.00002C18.0049 4.28502 14.9333 1.73002 14 1.00002Z" fill="white" stroke="#033A90" stroke-miterlimit="10"/>
</svg>
