<svg width="175" height="34" viewBox="0 0 175 34" fill="none" xmlns="http://www.w3.org/2000/svg">
<circle cx="17" cy="17" r="17" fill="#247CCA"/>
<path d="M25.9994 21.4765V24.1862C26.0005 24.4377 25.9488 24.6867 25.8479 24.9172C25.7469 25.1477 25.5988 25.3546 25.413 25.5247C25.2273 25.6947 25.008 25.8242 24.7693 25.9048C24.5305 25.9854 24.2775 26.0153 24.0265 25.9927C21.2415 25.6907 18.5664 24.7409 16.216 23.2197C14.0293 21.8329 12.1753 19.9827 10.7858 17.8003C9.25627 15.4439 8.30442 12.7611 8.00735 9.96915C7.98473 9.71938 8.01447 9.46764 8.09468 9.22996C8.17489 8.99229 8.30381 8.77389 8.47323 8.58866C8.64265 8.40343 8.84885 8.25544 9.07872 8.15411C9.30858 8.05278 9.55707 8.00032 9.80837 8.00009H12.5235C12.9627 7.99577 13.3885 8.151 13.7215 8.43683C14.0545 8.72267 14.2721 9.11961 14.3335 9.55366C14.4481 10.4208 14.6607 11.2723 14.9671 12.0918C15.0888 12.4151 15.1152 12.7664 15.043 13.1042C14.9708 13.442 14.8031 13.752 14.5598 13.9976L13.4104 15.1447C14.6988 17.406 16.5748 19.2784 18.8406 20.5642L19.99 19.4171C20.2361 19.1742 20.5467 19.0069 20.8852 18.9348C21.2236 18.8628 21.5757 18.8891 21.8996 19.0106C22.7207 19.3164 23.5739 19.5285 24.4428 19.6429C24.8824 19.7048 25.2839 19.9258 25.5709 20.2639C25.858 20.6019 26.0105 21.0335 25.9994 21.4765Z" fill="white"/>
<path d="M22 15C22 14.4857 21.6 13.6429 21 13C20.4514 12.4086 19.72 12 19 12" stroke="white" stroke-linecap="round" stroke-linejoin="round"/>
<path d="M25 15C25 11.6829 22.3171 9 19 9" stroke="white" stroke-linecap="round" stroke-linejoin="round"/>
<path d="M56.02 24.24C54.7533 24.24 53.66 23.94 52.74 23.34C51.8333 22.7267 51.1333 21.88 50.64 20.8C50.16 19.7067 49.92 18.44 49.92 17C49.92 15.56 50.16 14.3 50.64 13.22C51.1333 12.1267 51.8333 11.28 52.74 10.68C53.66 10.0667 54.7533 9.76 56.02 9.76C57.2867 9.76 58.3733 10.0667 59.28 10.68C60.1867 11.28 60.88 12.1267 61.36 13.22C61.8533 14.3 62.1 15.56 62.1 17C62.1 18.44 61.8533 19.7067 61.36 20.8C60.88 21.88 60.1867 22.7267 59.28 23.34C58.3733 23.94 57.2867 24.24 56.02 24.24ZM56.02 22.34C56.78 22.34 57.4533 22.1267 58.04 21.7C58.64 21.2733 59.1067 20.66 59.44 19.86C59.7733 19.06 59.94 18.1067 59.94 17C59.94 15.8933 59.7733 14.94 59.44 14.14C59.1067 13.34 58.64 12.7267 58.04 12.3C57.4533 11.8733 56.78 11.66 56.02 11.66C55.2467 11.66 54.5667 11.8733 53.98 12.3C53.3933 12.7267 52.9333 13.34 52.6 14.14C52.2667 14.94 52.1 15.8933 52.1 17C52.1 18.1067 52.2667 19.06 52.6 19.86C52.9333 20.66 53.3933 21.2733 53.98 21.7C54.5667 22.1267 55.2467 22.34 56.02 22.34ZM68.943 24.24C68.0363 24.24 67.2096 24.08 66.463 23.76C65.7296 23.4267 65.143 22.9267 64.703 22.26C64.263 21.5933 64.0296 20.76 64.003 19.76H66.103C66.1296 20.5067 66.383 21.14 66.863 21.66C67.3563 22.1667 68.0496 22.42 68.943 22.42C69.7963 22.42 70.4496 22.1867 70.903 21.72C71.3563 21.24 71.583 20.6467 71.583 19.94C71.583 19.0867 71.2763 18.4533 70.663 18.04C70.063 17.6267 69.323 17.42 68.443 17.42H67.403V15.66H68.463C69.2496 15.66 69.883 15.4733 70.363 15.1C70.8563 14.7267 71.103 14.2 71.103 13.52C71.103 12.9467 70.9096 12.48 70.523 12.12C70.1496 11.76 69.6163 11.58 68.923 11.58C68.203 11.58 67.6363 11.7933 67.223 12.22C66.8096 12.6333 66.583 13.1533 66.543 13.78H64.443C64.4696 12.9667 64.6696 12.26 65.043 11.66C65.4296 11.06 65.9563 10.5933 66.623 10.26C67.2896 9.92667 68.0563 9.76 68.923 9.76C69.8563 9.76 70.6363 9.92667 71.263 10.26C71.903 10.58 72.383 11.02 72.703 11.58C73.0363 12.1267 73.203 12.7267 73.203 13.38C73.203 14.1267 72.9963 14.78 72.583 15.34C72.1696 15.9 71.6163 16.2733 70.923 16.46C71.723 16.6333 72.383 17.0267 72.903 17.64C73.423 18.24 73.683 19.02 73.683 19.98C73.683 20.7533 73.503 21.4667 73.143 22.12C72.783 22.76 72.2496 23.2733 71.543 23.66C70.8363 24.0467 69.9696 24.24 68.943 24.24ZM86.218 24.24C85.2313 24.24 84.378 24.0667 83.658 23.72C82.938 23.36 82.3646 22.8733 81.938 22.26C81.5246 21.6333 81.2713 20.9267 81.178 20.14H83.258C83.3913 20.8067 83.7246 21.36 84.258 21.8C84.7913 22.2267 85.4513 22.44 86.238 22.44C86.8246 22.44 87.3313 22.3 87.758 22.02C88.1846 21.7267 88.518 21.34 88.758 20.86C88.998 20.38 89.118 19.84 89.118 19.24C89.118 18.2933 88.8513 17.54 88.318 16.98C87.7846 16.4067 87.1113 16.12 86.298 16.12C85.6046 16.12 85.0113 16.2867 84.518 16.62C84.0246 16.94 83.6646 17.3467 83.438 17.84H81.418L82.618 10H90.178V11.86H84.218L83.498 15.6C83.8046 15.2533 84.2246 14.9667 84.758 14.74C85.3046 14.5 85.918 14.38 86.598 14.38C87.5446 14.38 88.358 14.6 89.038 15.04C89.718 15.4667 90.238 16.0467 90.598 16.78C90.9713 17.5133 91.158 18.3267 91.158 19.22C91.158 20.1533 90.958 21 90.558 21.76C90.158 22.52 89.5846 23.1267 88.838 23.58C88.1046 24.02 87.2313 24.24 86.218 24.24ZM98.1422 24.24C97.2355 24.24 96.4089 24.08 95.6622 23.76C94.9289 23.4267 94.3422 22.9267 93.9022 22.26C93.4622 21.5933 93.2289 20.76 93.2022 19.76H95.3022C95.3289 20.5067 95.5822 21.14 96.0622 21.66C96.5555 22.1667 97.2489 22.42 98.1422 22.42C98.9955 22.42 99.6489 22.1867 100.102 21.72C100.556 21.24 100.782 20.6467 100.782 19.94C100.782 19.0867 100.476 18.4533 99.8622 18.04C99.2622 17.6267 98.5222 17.42 97.6422 17.42H96.6022V15.66H97.6622C98.4489 15.66 99.0822 15.4733 99.5622 15.1C100.056 14.7267 100.302 14.2 100.302 13.52C100.302 12.9467 100.109 12.48 99.7222 12.12C99.3489 11.76 98.8155 11.58 98.1222 11.58C97.4022 11.58 96.8355 11.7933 96.4222 12.22C96.0089 12.6333 95.7822 13.1533 95.7422 13.78H93.6422C93.6689 12.9667 93.8689 12.26 94.2422 11.66C94.6289 11.06 95.1555 10.5933 95.8222 10.26C96.4889 9.92667 97.2555 9.76 98.1222 9.76C99.0555 9.76 99.8355 9.92667 100.462 10.26C101.102 10.58 101.582 11.02 101.902 11.58C102.236 12.1267 102.402 12.7267 102.402 13.38C102.402 14.1267 102.196 14.78 101.782 15.34C101.369 15.9 100.816 16.2733 100.122 16.46C100.922 16.6333 101.582 17.0267 102.102 17.64C102.622 18.24 102.882 19.02 102.882 19.98C102.882 20.7533 102.702 21.4667 102.342 22.12C101.982 22.76 101.449 23.2733 100.742 23.66C100.036 24.0467 99.1689 24.24 98.1422 24.24ZM111.878 24V21.2H104.858V19.52L111.538 10H113.978V19.36H115.938V21.2H113.978V24H111.878ZM107.158 19.36H111.998V12.34L107.158 19.36ZM122.839 24.24C121.852 24.24 120.999 24.0667 120.279 23.72C119.559 23.36 118.986 22.8733 118.559 22.26C118.146 21.6333 117.892 20.9267 117.799 20.14H119.879C120.012 20.8067 120.346 21.36 120.879 21.8C121.412 22.2267 122.072 22.44 122.859 22.44C123.446 22.44 123.952 22.3 124.379 22.02C124.806 21.7267 125.139 21.34 125.379 20.86C125.619 20.38 125.739 19.84 125.739 19.24C125.739 18.2933 125.472 17.54 124.939 16.98C124.406 16.4067 123.732 16.12 122.919 16.12C122.226 16.12 121.632 16.2867 121.139 16.62C120.646 16.94 120.286 17.3467 120.059 17.84H118.039L119.239 10H126.799V11.86H120.839L120.119 15.6C120.426 15.2533 120.846 14.9667 121.379 14.74C121.926 14.5 122.539 14.38 123.219 14.38C124.166 14.38 124.979 14.6 125.659 15.04C126.339 15.4667 126.859 16.0467 127.219 16.78C127.592 17.5133 127.779 18.3267 127.779 19.22C127.779 20.1533 127.579 21 127.179 21.76C126.779 22.52 126.206 23.1267 125.459 23.58C124.726 24.02 123.852 24.24 122.839 24.24ZM135.042 24V22.48C135.949 21.76 136.816 21.0333 137.642 20.3C138.469 19.5667 139.202 18.8467 139.842 18.14C140.496 17.42 141.009 16.72 141.382 16.04C141.756 15.3467 141.942 14.68 141.942 14.04C141.942 13.6133 141.869 13.2133 141.722 12.84C141.576 12.4533 141.336 12.1467 141.002 11.92C140.669 11.68 140.222 11.56 139.662 11.56C138.822 11.56 138.189 11.8267 137.762 12.36C137.349 12.8933 137.149 13.5333 137.162 14.28H135.102C135.116 13.2933 135.322 12.4667 135.722 11.8C136.136 11.1333 136.682 10.6267 137.362 10.28C138.056 9.93333 138.836 9.76 139.702 9.76C141.022 9.76 142.076 10.1333 142.862 10.88C143.662 11.6133 144.062 12.64 144.062 13.96C144.062 14.7467 143.869 15.5267 143.482 16.3C143.109 17.0733 142.616 17.82 142.002 18.54C141.402 19.2467 140.756 19.9133 140.062 20.54C139.369 21.1667 138.709 21.7333 138.082 22.24H144.482V24H135.042ZM148.208 24V12.4L145.948 12.92V11.36L149.048 10H150.408V24H148.208ZM154.232 24L159.652 11.82H152.372V10H161.832V11.54L156.452 24H154.232ZM168.288 24.24C167.302 24.24 166.448 24.0667 165.728 23.72C165.008 23.36 164.435 22.8733 164.008 22.26C163.595 21.6333 163.342 20.9267 163.248 20.14H165.328C165.462 20.8067 165.795 21.36 166.328 21.8C166.862 22.2267 167.522 22.44 168.308 22.44C168.895 22.44 169.402 22.3 169.828 22.02C170.255 21.7267 170.588 21.34 170.828 20.86C171.068 20.38 171.188 19.84 171.188 19.24C171.188 18.2933 170.922 17.54 170.388 16.98C169.855 16.4067 169.182 16.12 168.368 16.12C167.675 16.12 167.082 16.2867 166.588 16.62C166.095 16.94 165.735 17.3467 165.508 17.84H163.488L164.688 10H172.248V11.86H166.288L165.568 15.6C165.875 15.2533 166.295 14.9667 166.828 14.74C167.375 14.5 167.988 14.38 168.668 14.38C169.615 14.38 170.428 14.6 171.108 15.04C171.788 15.4667 172.308 16.0467 172.668 16.78C173.042 17.5133 173.228 18.3267 173.228 19.22C173.228 20.1533 173.028 21 172.628 21.76C172.228 22.52 171.655 23.1267 170.908 23.58C170.175 24.02 169.302 24.24 168.288 24.24Z" fill="white"/>
</svg>
