<svg width="172" height="34" viewBox="0 0 172 34" fill="none" xmlns="http://www.w3.org/2000/svg">
<circle cx="17" cy="17" r="17" fill="#247CCA"/>
<path d="M25.9994 21.4765V24.1862C26.0005 24.4377 25.9488 24.6867 25.8479 24.9172C25.7469 25.1477 25.5988 25.3546 25.413 25.5247C25.2273 25.6947 25.008 25.8242 24.7693 25.9048C24.5305 25.9854 24.2775 26.0153 24.0265 25.9927C21.2415 25.6907 18.5664 24.7409 16.216 23.2197C14.0293 21.8329 12.1753 19.9827 10.7858 17.8003C9.25627 15.4439 8.30442 12.7611 8.00735 9.96915C7.98473 9.71938 8.01447 9.46764 8.09468 9.22996C8.17489 8.99229 8.30381 8.77389 8.47323 8.58866C8.64265 8.40343 8.84885 8.25544 9.07872 8.15411C9.30858 8.05278 9.55707 8.00032 9.80837 8.00009H12.5235C12.9627 7.99577 13.3885 8.151 13.7215 8.43683C14.0545 8.72267 14.2721 9.11961 14.3335 9.55366C14.4481 10.4208 14.6607 11.2723 14.9671 12.0918C15.0888 12.4151 15.1152 12.7664 15.043 13.1042C14.9708 13.442 14.8031 13.752 14.5598 13.9976L13.4104 15.1447C14.6988 17.406 16.5748 19.2784 18.8406 20.5642L19.99 19.4171C20.2361 19.1742 20.5467 19.0069 20.8852 18.9348C21.2236 18.8628 21.5757 18.8891 21.8996 19.0106C22.7207 19.3164 23.5739 19.5285 24.4428 19.6429C24.8824 19.7048 25.2839 19.9258 25.5709 20.2639C25.858 20.6019 26.0105 21.0335 25.9994 21.4765Z" fill="white"/>
<path d="M22 15C22 14.4857 21.6 13.6429 21 13C20.4514 12.4086 19.72 12 19 12" stroke="white" stroke-linecap="round" stroke-linejoin="round"/>
<path d="M25 15C25 11.6829 22.3171 9 19 9" stroke="white" stroke-linecap="round" stroke-linejoin="round"/>
<path d="M56.02 24.24C54.7533 24.24 53.66 23.94 52.74 23.34C51.8333 22.7267 51.1333 21.88 50.64 20.8C50.16 19.7067 49.92 18.44 49.92 17C49.92 15.56 50.16 14.3 50.64 13.22C51.1333 12.1267 51.8333 11.28 52.74 10.68C53.66 10.0667 54.7533 9.76 56.02 9.76C57.2867 9.76 58.3733 10.0667 59.28 10.68C60.1867 11.28 60.88 12.1267 61.36 13.22C61.8533 14.3 62.1 15.56 62.1 17C62.1 18.44 61.8533 19.7067 61.36 20.8C60.88 21.88 60.1867 22.7267 59.28 23.34C58.3733 23.94 57.2867 24.24 56.02 24.24ZM56.02 22.34C56.78 22.34 57.4533 22.1267 58.04 21.7C58.64 21.2733 59.1067 20.66 59.44 19.86C59.7733 19.06 59.94 18.1067 59.94 17C59.94 15.8933 59.7733 14.94 59.44 14.14C59.1067 13.34 58.64 12.7267 58.04 12.3C57.4533 11.8733 56.78 11.66 56.02 11.66C55.2467 11.66 54.5667 11.8733 53.98 12.3C53.3933 12.7267 52.9333 13.34 52.6 14.14C52.2667 14.94 52.1 15.8933 52.1 17C52.1 18.1067 52.2667 19.06 52.6 19.86C52.9333 20.66 53.3933 21.2733 53.98 21.7C54.5667 22.1267 55.2467 22.34 56.02 22.34ZM70.843 24V21.2H63.823V19.52L70.503 10H72.943V19.36H74.903V21.2H72.943V24H70.843ZM66.123 19.36H70.963V12.34L66.123 19.36ZM76.6439 24V22.48C77.5506 21.76 78.4172 21.0333 79.2439 20.3C80.0706 19.5667 80.8039 18.8467 81.4439 18.14C82.0972 17.42 82.6106 16.72 82.9839 16.04C83.3572 15.3467 83.5439 14.68 83.5439 14.04C83.5439 13.6133 83.4706 13.2133 83.3239 12.84C83.1772 12.4533 82.9372 12.1467 82.6039 11.92C82.2706 11.68 81.8239 11.56 81.2639 11.56C80.4239 11.56 79.7906 11.8267 79.3639 12.36C78.9506 12.8933 78.7506 13.5333 78.7639 14.28H76.7039C76.7172 13.2933 76.9239 12.4667 77.3239 11.8C77.7372 11.1333 78.2839 10.6267 78.9639 10.28C79.6572 9.93333 80.4372 9.76 81.3039 9.76C82.6239 9.76 83.6772 10.1333 84.4639 10.88C85.2639 11.6133 85.6639 12.64 85.6639 13.96C85.6639 14.7467 85.4706 15.5267 85.0839 16.3C84.7106 17.0733 84.2172 17.82 83.6039 18.54C83.0039 19.2467 82.3572 19.9133 81.6639 20.54C80.9706 21.1667 80.3106 21.7333 79.6839 22.24H86.0839V24H76.6439ZM92.8953 24.24C91.962 24.24 91.1153 24.0733 90.3553 23.74C89.6086 23.3933 89.0086 22.9133 88.5553 22.3C88.1153 21.6867 87.8953 20.9667 87.8953 20.14C87.8953 19.3 88.1286 18.5467 88.5953 17.88C89.0753 17.2133 89.7086 16.76 90.4953 16.52C89.7886 16.24 89.242 15.8333 88.8553 15.3C88.4686 14.7533 88.2753 14.1533 88.2753 13.5C88.2753 12.82 88.4553 12.2 88.8153 11.64C89.1753 11.0667 89.6953 10.6133 90.3753 10.28C91.0686 9.93333 91.9086 9.76 92.8953 9.76C93.882 9.76 94.7153 9.93333 95.3953 10.28C96.0886 10.6133 96.6153 11.0667 96.9753 11.64C97.3353 12.2 97.5153 12.82 97.5153 13.5C97.5153 14.14 97.3153 14.74 96.9153 15.3C96.5286 15.8467 95.982 16.2533 95.2753 16.52C96.062 16.7733 96.6886 17.2333 97.1553 17.9C97.6353 18.5533 97.8753 19.3 97.8753 20.14C97.8753 20.9667 97.6553 21.6867 97.2153 22.3C96.7753 22.9133 96.1753 23.3933 95.4153 23.74C94.6686 24.0733 93.8286 24.24 92.8953 24.24ZM92.8953 15.84C93.6686 15.84 94.2753 15.64 94.7153 15.24C95.1686 14.84 95.3953 14.3267 95.3953 13.7C95.3953 12.9933 95.1753 12.4533 94.7353 12.08C94.2953 11.7067 93.682 11.52 92.8953 11.52C92.1086 11.52 91.4953 11.7067 91.0553 12.08C90.6153 12.4533 90.3953 12.9933 90.3953 13.7C90.3953 14.3267 90.6153 14.84 91.0553 15.24C91.4953 15.64 92.1086 15.84 92.8953 15.84ZM92.8953 22.44C93.8553 22.44 94.5753 22.2133 95.0553 21.76C95.5353 21.2933 95.7753 20.7 95.7753 19.98C95.7753 19.18 95.5153 18.5667 94.9953 18.14C94.4886 17.7 93.7886 17.48 92.8953 17.48C92.002 17.48 91.2953 17.7 90.7753 18.14C90.2553 18.5667 89.9953 19.18 89.9953 19.98C89.9953 20.7 90.2353 21.2933 90.7153 21.76C91.2086 22.2133 91.9353 22.44 92.8953 22.44ZM110.437 24.24C109.45 24.24 108.597 24.0667 107.877 23.72C107.157 23.36 106.583 22.8733 106.157 22.26C105.743 21.6333 105.49 20.9267 105.397 20.14H107.477C107.61 20.8067 107.943 21.36 108.477 21.8C109.01 22.2267 109.67 22.44 110.457 22.44C111.043 22.44 111.55 22.3 111.977 22.02C112.403 21.7267 112.737 21.34 112.977 20.86C113.217 20.38 113.337 19.84 113.337 19.24C113.337 18.2933 113.07 17.54 112.537 16.98C112.003 16.4067 111.33 16.12 110.517 16.12C109.823 16.12 109.23 16.2867 108.737 16.62C108.243 16.94 107.883 17.3467 107.657 17.84H105.637L106.837 10H114.397V11.86H108.437L107.717 15.6C108.023 15.2533 108.443 14.9667 108.977 14.74C109.523 14.5 110.137 14.38 110.817 14.38C111.763 14.38 112.577 14.6 113.257 15.04C113.937 15.4667 114.457 16.0467 114.817 16.78C115.19 17.5133 115.377 18.3267 115.377 19.22C115.377 20.1533 115.177 21 114.777 21.76C114.377 22.52 113.803 23.1267 113.057 23.58C112.323 24.02 111.45 24.24 110.437 24.24ZM119.321 24V12.4L117.061 12.92V11.36L120.161 10H121.521V24H119.321ZM129.145 24.24C128.212 24.24 127.365 24.0733 126.605 23.74C125.859 23.3933 125.259 22.9133 124.805 22.3C124.365 21.6867 124.145 20.9667 124.145 20.14C124.145 19.3 124.379 18.5467 124.845 17.88C125.325 17.2133 125.959 16.76 126.745 16.52C126.039 16.24 125.492 15.8333 125.105 15.3C124.719 14.7533 124.525 14.1533 124.525 13.5C124.525 12.82 124.705 12.2 125.065 11.64C125.425 11.0667 125.945 10.6133 126.625 10.28C127.319 9.93333 128.159 9.76 129.145 9.76C130.132 9.76 130.965 9.93333 131.645 10.28C132.339 10.6133 132.865 11.0667 133.225 11.64C133.585 12.2 133.765 12.82 133.765 13.5C133.765 14.14 133.565 14.74 133.165 15.3C132.779 15.8467 132.232 16.2533 131.525 16.52C132.312 16.7733 132.939 17.2333 133.405 17.9C133.885 18.5533 134.125 19.3 134.125 20.14C134.125 20.9667 133.905 21.6867 133.465 22.3C133.025 22.9133 132.425 23.3933 131.665 23.74C130.919 24.0733 130.079 24.24 129.145 24.24ZM129.145 15.84C129.919 15.84 130.525 15.64 130.965 15.24C131.419 14.84 131.645 14.3267 131.645 13.7C131.645 12.9933 131.425 12.4533 130.985 12.08C130.545 11.7067 129.932 11.52 129.145 11.52C128.359 11.52 127.745 11.7067 127.305 12.08C126.865 12.4533 126.645 12.9933 126.645 13.7C126.645 14.3267 126.865 14.84 127.305 15.24C127.745 15.64 128.359 15.84 129.145 15.84ZM129.145 22.44C130.105 22.44 130.825 22.2133 131.305 21.76C131.785 21.2933 132.025 20.7 132.025 19.98C132.025 19.18 131.765 18.5667 131.245 18.14C130.739 17.7 130.039 17.48 129.145 17.48C128.252 17.48 127.545 17.7 127.025 18.14C126.505 18.5667 126.245 19.18 126.245 19.98C126.245 20.7 126.485 21.2933 126.965 21.76C127.459 22.2133 128.185 22.44 129.145 22.44ZM143.247 24V12.4L140.987 12.92V11.36L144.087 10H145.447V24H143.247ZM153.171 24.24C152.184 24.24 151.331 24.0667 150.611 23.72C149.891 23.36 149.318 22.8733 148.891 22.26C148.478 21.6333 148.224 20.9267 148.131 20.14H150.211C150.344 20.8067 150.678 21.36 151.211 21.8C151.744 22.2267 152.404 22.44 153.191 22.44C153.778 22.44 154.284 22.3 154.711 22.02C155.138 21.7267 155.471 21.34 155.711 20.86C155.951 20.38 156.071 19.84 156.071 19.24C156.071 18.2933 155.804 17.54 155.271 16.98C154.738 16.4067 154.064 16.12 153.251 16.12C152.558 16.12 151.964 16.2867 151.471 16.62C150.978 16.94 150.618 17.3467 150.391 17.84H148.371L149.571 10H157.131V11.86H151.171L150.451 15.6C150.758 15.2533 151.178 14.9667 151.711 14.74C152.258 14.5 152.871 14.38 153.551 14.38C154.498 14.38 155.311 14.6 155.991 15.04C156.671 15.4667 157.191 16.0467 157.551 16.78C157.924 17.5133 158.111 18.3267 158.111 19.22C158.111 20.1533 157.911 21 157.511 21.76C157.111 22.52 156.538 23.1267 155.791 23.58C155.058 24.02 154.184 24.24 153.171 24.24ZM164.788 24.24C163.868 24.24 163.081 24.06 162.428 23.7C161.775 23.34 161.261 22.86 160.888 22.26C160.528 21.66 160.308 21.0067 160.228 20.3H162.208C162.328 20.9933 162.615 21.5267 163.068 21.9C163.521 22.2733 164.101 22.46 164.808 22.46C165.781 22.46 166.581 22.0067 167.208 21.1C167.848 20.18 168.188 18.7733 168.228 16.88C167.908 17.4667 167.408 17.9667 166.728 18.38C166.061 18.7933 165.288 19 164.408 19C163.621 19 162.881 18.8133 162.188 18.44C161.495 18.0667 160.935 17.5467 160.508 16.88C160.081 16.2 159.868 15.4 159.868 14.48C159.868 13.6667 160.068 12.9 160.468 12.18C160.868 11.46 161.428 10.88 162.148 10.44C162.881 9.98667 163.748 9.76 164.748 9.76C165.775 9.76 166.641 9.95333 167.348 10.34C168.055 10.7267 168.621 11.24 169.048 11.88C169.475 12.52 169.781 13.24 169.968 14.04C170.168 14.84 170.268 15.66 170.268 16.5C170.268 18.0467 170.048 19.4 169.608 20.56C169.181 21.72 168.561 22.6267 167.748 23.28C166.935 23.92 165.948 24.24 164.788 24.24ZM164.888 17.18C165.448 17.18 165.948 17.0533 166.388 16.8C166.828 16.5467 167.175 16.2133 167.428 15.8C167.695 15.3733 167.828 14.9067 167.828 14.4C167.828 13.8533 167.695 13.3733 167.428 12.96C167.175 12.5333 166.821 12.2 166.368 11.96C165.928 11.72 165.428 11.6 164.868 11.6C164.308 11.6 163.808 11.72 163.368 11.96C162.928 12.2 162.575 12.5333 162.308 12.96C162.055 13.3733 161.928 13.8467 161.928 14.38C161.928 15.2333 162.208 15.9133 162.768 16.42C163.328 16.9267 164.035 17.18 164.888 17.18Z" fill="white"/>
</svg>
