<svg width="169" height="82" viewBox="0 0 169 82" fill="none" xmlns="http://www.w3.org/2000/svg">
<path fill-rule="evenodd" clip-rule="evenodd" d="M119 0.200667C117.151 0.485665 114.237 1.07195 113 1.20067C111.231 1.38511 106.859 2.28146 104 3.20067C101.041 4.15167 94.7555 7.45985 94 8.20067C93.7689 8.42721 93.0037 9.46954 92 10.2007C90.9964 10.9315 89.1977 10.9287 89 11.2007C88.8026 11.4723 88.5213 12.6446 88 13.2007C85.219 16.1654 81.6916 23.4908 81 28.2007C80.101 34.3234 82.1646 41.8838 86 48.2007C87.2071 50.1887 91.8765 57.2007 92 57.2007C92.031 57.2007 91.9638 56.6386 92 56.2007C92.097 55.0334 93.9398 50.3004 95 48.2007C95.5049 47.2012 96.438 45.8842 97 45.2007C97.5624 44.5171 98 43.3333 98 43.2007C98 42.4965 102.416 39.6214 105 38.2007C107.656 36.7405 115 32.8842 115 33.2007C115 33.2761 115.54 33.4327 116 33.2007C116.46 32.969 117.331 32.333 118 32.2007C119.784 31.8478 119.576 32.7567 122 32.2007C123.23 31.9187 124.582 31.2737 125 31.2007C125.418 31.1277 125.788 31.2749 126 31.2007C126.211 31.1265 128.037 30.6253 130 30.2007C136.462 28.8029 142 26.7776 142 26.2007C142 26.0726 141.789 26.2007 142 26.2007C142.21 26.2007 143.572 24.6584 145 23.2007C147.663 20.4824 148.297 19.5455 149 16.2007C149.271 14.9111 149.275 11.5345 149 10.2007C148.582 8.17539 146.776 7.07602 144 5.20067C140.263 2.67566 139.647 1.54237 134 0.200667C132.827 -0.0782742 120.661 -0.0552562 119 0.200667ZM60 1.20067C59.3309 1.32091 58.5018 1.99775 58 2.20067C57.4982 2.40359 57.0423 2.21551 57 2.20067C56.6597 2.08346 55.2537 2.44925 54 3.20067C50.8471 5.09026 48.9212 7.44275 49 10.2007C49.0478 11.877 48.6481 11.9889 50 13.2007C51.996 14.9897 52.1539 14.7398 59 18.2007C65.9665 21.7221 66.3486 22.1043 68 23.2007C70.0085 24.5339 70.8957 24.9665 71 25.2007C71.056 25.3254 71.7631 26.2007 72 26.2007C72.2369 26.2007 72 26.0341 72 26.2007C72 26.3672 71.7911 26.2013 72 26.2007C72.2637 26.2001 72.9535 25.7592 73 24.2007C73.0736 21.7411 74.146 18.9815 77 13.2007C78.3017 10.5648 78.0435 10.7677 78 9.20067C77.9599 7.76235 77.6922 7.10442 77 6.20067C76.5289 5.58615 76.1606 5.10163 76 5.20067C75.8394 5.2994 75.9541 5.40722 76 5.20067C76.1211 4.65732 73.167 3.11351 70 2.20067C67.1235 1.37172 62.3814 0.773624 60 1.20067ZM67 2.20067C67.5934 2.33635 67.0034 2.74213 67 3.20067C66.9912 4.40699 67.1323 5.08467 64 5.20067C61.6935 5.28608 60.4395 5.63764 59 6.20067H57H56L55 5.20067L56 4.20067C56.9021 3.36778 58.8151 2.45901 61 2.20067C61.7822 2.10829 62.9164 2.27941 63 2.20067C63.1667 2.04348 65.6725 1.89659 67 2.20067ZM131 3.20067C132.349 3.66527 131.993 4.06794 132 5.20067C132.009 6.78376 131.947 7.08679 126 7.20067C121.155 7.29365 120.973 7.09399 118 8.20067C114.541 9.48816 112.432 9.89151 111 9.20067C109.865 8.65308 109.5 8.34611 110 7.20067C110.218 6.70094 110.992 6.06438 111 6.20067C111.008 6.33696 110.509 6.54866 111 6.20067C111.863 5.58857 114.683 4.47597 116 4.20067C116.352 4.12677 116.624 4.29244 117 4.20067C118.561 3.81966 118.523 3.75067 122 3.20067C122.669 3.09497 122.943 3.25518 123 3.20067C123.309 2.90355 129.976 2.84783 131 3.20067ZM138 6.20067C139.696 6.70222 141 8.0422 141 9.20067C141 10.2834 140.536 10.7404 139 10.2007C138.287 9.9505 136.515 9.28759 136 9.20067C133.961 8.85631 134.042 6.65739 136 6.20067C136.335 6.12283 136.989 6.22005 137 6.20067C137.012 6.18128 137.142 5.94717 138 6.20067ZM56 7.20067C56.1417 7.76279 55.6849 8.47076 55 9.20067C54.0827 10.178 53.5213 10.1708 53 9.20067C52.5639 8.38898 54.021 7.20067 55 7.20067C55.552 7.20067 55.8641 6.66096 56 7.20067ZM82 13.2007C81.8884 13.3115 82 14.0283 82 14.2007C82 14.3903 81.782 14.4178 82 14.2007C82.198 14.0035 82.0864 13.2867 82 13.2007C82.1113 13.0895 81.9136 13.1147 82 13.2007ZM39 19.2007C31.2449 19.9902 25.5304 22.2104 24 26.2007C23.2494 28.1578 23.9079 31.0658 25 32.2007C26.1034 33.3476 29.1247 34.8881 31 35.2007C31.4182 35.2706 31.6159 35.114 32 35.2007C32.7804 35.3766 35.7248 36.0019 45 37.2007C55.4373 38.5499 61.9158 40.2713 70 44.2007C72.2625 45.3001 74.8638 46.1383 75 46.2007C75.5757 46.4642 73.9246 41.9812 73 40.2007C72.7302 39.6813 72.9693 39.2443 73 39.2007C73.2543 38.8418 70.6347 32.7089 70 32.2007C69.8963 32.1174 69.3175 31.6962 69 31.2007C66.6116 27.4712 59.6721 23.0966 54 21.2007C49.1333 19.5737 43.0252 18.7909 39 19.2007ZM47 20.2007C49.2935 20.6968 49.8434 21.2587 50 22.2007C50.0678 22.6086 50.6046 22.9066 50 23.2007C49.2251 23.5777 48.0386 23.6983 46 23.2007C44.1874 22.7582 43.1381 23.1228 40 23.2007C36.177 23.2955 36.33 22.8149 36 22.2007C35.4398 21.1585 35.587 20.5623 37 20.2007C37.701 20.0217 38.8327 20.2679 39 20.2007C39.6049 19.9581 44.9207 19.7509 47 20.2007ZM34 23.2007C34.3546 24.1505 34.2935 24.5795 33 25.2007C30.9514 26.185 30.2035 26.8394 30 26.2007C29.7491 25.4138 30.8498 23.8991 32 23.2007C33.3114 22.4044 33.6816 22.3478 34 23.2007ZM130 35.2007C125.439 35.8864 117.572 38.3744 114 40.2007C110.901 41.7853 108.763 44.5769 106 48.2007C105.047 49.45 104.087 50.1174 104 50.2007C103.913 50.284 103.483 51.2845 103 52.2007C102.517 53.1168 101.217 53.9487 101 54.2007C100.628 54.6332 99.2302 59.9598 99 61.2007C98.941 61.5178 98.2734 62.2845 98 63.2007C97.7266 64.1168 98.0961 65.6316 98 66.2007C97.9039 66.7698 97.0578 67.1034 97 67.2007C96.9422 67.2979 97.1125 68.2012 97 69.2007C96.8875 70.2001 97.0694 70.7009 97 71.2007C96.9304 71.7004 96.0928 73.7187 96 75.2007C95.9073 76.6826 96.0882 78.0583 96 78.2007C95.9115 78.343 95.9094 78.2007 96 78.2007C96.344 78.2007 98.2004 75.5235 98 75.2007C97.8768 75.002 97.8054 75.081 98 75.2007C98.2004 75.3242 98.1652 73.7126 99 72.2007C99.7607 70.8229 100.66 69.6171 101 69.2007C101.955 68.0316 105 64.2949 105 64.2007C105 63.7297 110.559 58.2344 113 56.2007C114.087 55.2945 114.944 54.3255 115 54.2007C115.056 54.0759 115.805 54.204 116 54.2007C116.195 54.1976 116.871 53.7704 118 53.2007C119.129 52.631 119.998 52.0856 120 52.2007C120.003 52.3155 120.877 52.3672 121 52.2007C121.299 51.7951 122.869 51.3306 124 51.2007C131.263 50.3672 134.218 50.157 138 51.2007C140.324 51.8424 141.499 51.643 146 54.2007C150.759 56.905 152.616 57.9399 154 58.2007C154.531 58.3009 154.833 59.0719 155 59.2007C155.613 59.671 162.558 58.7882 164 58.2007C166.184 57.3108 167.022 56.5454 168 55.2007C168.794 54.1097 169 53.9497 169 52.2007C169 50.5446 168.842 49.9425 168 48.2007C166.78 45.6748 165.023 43.202 162 41.2007C159.374 39.4619 153.782 37.2722 150 36.2007C144.847 34.7405 136.116 34.2815 130 35.2007ZM144 37.2007C144.803 37.3642 146.568 38.1304 147 38.2007C147.432 38.2709 148.592 38.7539 150 39.2007C151.408 39.6474 152.694 40.1383 153 40.2007C154.92 40.5905 159.332 42.3999 160 43.2007C160.348 43.6183 160.409 43.7936 160 44.2007C159.585 44.6141 159.262 44.5132 158 44.2007C157.193 44.0008 155.338 43.7682 154 43.2007C150.356 41.6554 149.05 40.7277 146 40.2007C141.663 39.4514 139.625 37.9987 141 37.2007C141.666 36.8136 142.184 36.8306 144 37.2007ZM31 41.2007C30.9614 41.2304 29.84 41.098 28 41.2007C22.9201 41.4845 18.8747 42.799 15 44.2007C8.60012 46.5161 4.44465 48.4155 3.00001 51.2007C1.25124 54.5719 0.108901 58.1442 1.00001 60.2007C1.21625 60.7004 2.02708 61.0759 2.00001 61.2007C1.97325 61.3255 1.84399 61.2007 2.00001 61.2007C2.15604 61.2007 2.88475 61.8393 3.00001 62.2007C3.26704 63.0387 4.85039 64.62 7.00001 66.2007C8.43036 67.2525 11.8951 68.7976 14 69.2007C14.2871 69.2555 15 70.1752 15 70.2007C15 70.2679 14.7774 69.5171 18 70.2007C23.1435 71.2916 37.0685 71.6208 42 70.2007C42.92 69.9357 43.6238 69.2897 44 69.2007C44.3762 69.1116 45 69.3479 45 69.2007C45 69.0538 44.7549 68.2007 45 68.2007C45.7774 68.2007 50.4206 65.7056 52 64.2007C54.121 62.1799 57.5785 59.7809 58 60.2007C58.1086 60.3085 58 60.3594 58 60.2007C58 60.042 58.7071 60.2176 59 60.2007C59.2929 60.184 59.9964 59.3373 61 59.2007C64.7409 58.6919 67.046 58.8332 70 60.2007C71.2485 60.7785 73.1636 62.5659 74 63.2007C76.2202 64.8861 80.8434 69.6666 82 71.2007C82.3708 71.6922 83.8692 72.7015 85 74.2007C86.1308 75.6999 87.2017 78.0467 88 79.2007C88.7984 80.3546 90 81.2734 90 81.2007C90 81.1283 90.17 80.7828 90 80.2007C89.83 79.6189 89.0897 78.7004 89 78.2007C88.9106 77.7009 88.4155 75.7831 88 74.2007C87.5846 72.6182 87.0861 70.6171 87 70.2007C85.9657 65.203 82.941 57.8707 81 56.2007C80.9033 56.1174 80.4839 55.867 80 55.2007C78.8248 53.5821 75.5177 50.2007 75 50.2007C74.7728 50.2007 75 50.3672 75 50.2007C75 50.0341 74.2369 50.2007 74 50.2007C73.7631 50.2007 74.056 50.3379 74 50.2007C73.8659 49.8705 69.3516 47.7632 65 46.2007C56.4207 43.1208 47.0008 41.6262 33 41.2007C32.0347 41.1716 31.0383 41.171 31 41.2007ZM37 44.2007C39.5015 44.7313 40.0608 45.1588 38 46.2007C37.0335 46.6892 36.6949 47.1595 32 47.2007C26.8513 47.2458 26.1402 47.3063 23 48.2007C19.2105 49.2801 15.7588 49.9563 15 49.2007C14.2473 48.4508 14.6834 46.8067 16 46.2007C16.6229 45.9142 17.9164 45.3061 18 45.2007C18.2646 44.8675 22.896 43.7334 27 43.2007C31.1356 42.664 34.3288 43.6343 37 44.2007ZM164 45.2007C165.175 45.9394 166.366 46.6107 166 47.2007C165.669 47.7343 163.549 47.8397 163 47.2007C162.714 46.8675 162.182 46.2007 162 46.2007C161.818 46.2007 161.374 46.5481 161 46.2007C160.461 45.7006 160.717 45.5393 161 45.2007C161.543 44.5492 162.679 44.3702 164 45.2007ZM12 49.2007C12.3337 49.5677 13.0621 50.5619 13 51.2007C12.9127 52.1011 12.358 52.7003 11 53.2007C10.1664 53.5078 10.0864 53.0841 10 53.2007C9.70166 53.6044 7.66759 54.307 7.00001 54.2007C6.03104 54.0462 6.29047 53.586 7.00001 52.2007C8.14295 49.9701 10.8008 47.8811 12 49.2007ZM126 53.2007C125.916 53.2852 124.753 54.1119 124 54.2007C119.374 54.7458 115.512 56.4306 114 59.2007V60.2007C114.471 59.9941 114.916 60.2876 115 60.2007C115.084 60.114 115.749 59.2631 116 59.2007C119.168 58.4138 119.797 59.1558 122 60.2007C123.671 60.9933 124.826 62.2877 125 65.2007C125.071 66.384 125.794 67.8139 126 68.2007C126.844 69.7862 128.27 70.3551 132 71.2007C133.279 71.4905 140.575 71.4805 142 71.2007C145.551 70.5032 148.608 68.4989 149 65.2007C149.347 62.2865 145.787 58.0615 142 56.2007C139.044 54.7481 134.231 53.3903 130 53.2007C127.993 53.1107 126.084 53.1162 126 53.2007ZM137 55.2007C139.132 55.8312 142.585 58.2942 143 59.2007C143.565 60.4358 142.236 60.526 140 59.2007C138.872 58.5319 136.932 57.4627 136 57.2007C134.266 56.7134 133.643 55.7758 134 55.2007C134.275 54.7582 135.115 54.6434 137 55.2007ZM145 61.2007C146.205 62.032 146.304 62.4105 146 63.2007C145.713 63.9454 145.096 63.2589 144 62.2007C142.748 60.9925 142.823 60.4081 144 60.2007C144.075 60.1876 144.364 60.7615 145 61.2007Z" fill="white"/>
</svg>
