<svg width="1437" height="136" viewBox="0 0 1437 136" fill="none" xmlns="http://www.w3.org/2000/svg">
<path d="M98.9843 63.7443L78.8916 119.002L58.667 118.212L50.8021 87.9616L40.1211 117.487L19.8966 116.697L4.17665 60.0399L23.6018 60.7989L32.1113 92.9957L43.6665 61.5829L61.0133 62.2607L69.5071 94.8572L81.078 63.0447L98.9843 63.7443Z" fill="#BEDBF4"/>
<path d="M150.767 93.2957C150.785 93.5618 150.799 94.9773 150.81 97.5423L120.478 99.5702C121.227 101.177 122.376 102.383 123.927 103.188C125.474 103.94 127.365 104.241 129.6 104.092C131.516 103.964 133.096 103.617 134.341 103.053C135.64 102.485 137.021 101.564 138.486 100.291L148.54 109.16C144.596 114.127 138.393 116.894 129.932 117.459C124.664 117.812 119.97 117.163 115.851 115.514C111.729 113.812 108.461 111.305 106.048 107.992C103.635 104.679 102.284 100.867 101.996 96.5564C101.704 92.1928 102.509 88.237 104.409 84.689C106.36 81.0842 109.134 78.1994 112.731 76.0346C116.381 73.8663 120.547 72.6256 125.23 72.3125C129.647 72.0172 133.723 72.6266 137.459 74.1407C141.249 75.6513 144.321 78.0383 146.678 81.3018C149.087 84.5616 150.45 88.5596 150.767 93.2957ZM126.212 84.5944C124.349 84.7189 122.84 85.3276 121.683 86.4205C120.527 87.5134 119.825 89.0036 119.577 90.891L133.626 89.9517C133.132 88.1673 132.24 86.8105 130.948 85.8813C129.653 84.8988 128.074 84.4698 126.212 84.5944Z" fill="#BEDBF4"/>
<path d="M215.989 96.5086L194.963 99.7856L192.751 110.008L173.78 112.965L189.344 53.8631L207.682 51.0049L240.494 102.567L221.207 105.573L215.989 96.5086ZM208.757 83.8716L201.213 70.7973L198.006 85.5471L208.757 83.8716Z" fill="#BEDBF4"/>
<path d="M255.439 59.8665C257.93 55.6742 262.246 53.0209 268.386 51.9066L271.243 67.6494C269.788 67.6967 268.457 67.8298 267.25 68.0489C261.163 69.1537 258.681 72.8021 259.805 78.9943L263.277 98.1218L245.487 101.351L237.673 58.2939L254.596 55.2224L255.439 59.8665Z" fill="#BEDBF4"/>
<path d="M322.672 65.2958C322.718 65.5585 322.881 66.9646 323.163 69.5142L293.213 74.7264C294.127 76.2455 295.397 77.3237 297.024 77.9609C298.641 78.5455 300.553 78.6458 302.76 78.2618C304.652 77.9326 306.187 77.4218 307.366 76.7294C308.597 76.0279 309.874 74.9666 311.197 73.5455L322.129 81.306C318.73 86.6614 312.854 90.066 304.499 91.5199C299.297 92.4252 294.561 92.275 290.291 91.0692C286.012 89.8109 282.498 87.6616 279.75 84.6212C277.001 81.5808 275.256 77.9325 274.516 73.6765C273.766 69.3679 274.149 65.3494 275.666 61.6208C277.226 57.8306 279.68 54.6696 283.029 52.1379C286.43 49.5971 290.443 47.9244 295.067 47.1197C299.428 46.3607 303.546 46.5373 307.421 47.6494C311.348 48.7524 314.655 50.8024 317.342 53.7994C320.081 56.7873 321.858 60.6194 322.672 65.2958ZM297.337 59.2298C295.498 59.5499 294.061 60.3142 293.026 61.5229C291.991 62.7315 291.45 64.2873 291.402 66.1904L305.274 63.7763C304.595 62.0538 303.565 60.7986 302.182 60.0106C300.791 59.17 299.176 58.9098 297.337 59.2298Z" fill="#BEDBF4"/>
<path d="M436.48 19.2059L423.024 76.4426L402.846 78.0357L391.479 48.92L384.344 79.4965L364.167 81.0896L341.895 26.6738L361.274 25.1437L373.51 56.1167L381.292 23.5632L398.598 22.1968L410.865 53.5686L418.616 20.6164L436.48 19.2059Z" fill="#BEDBF4"/>
<path d="M464.698 32.1743C472.377 32.3309 478.207 34.1834 482.188 37.7319C486.171 41.2272 488.09 46.5474 487.944 53.6926L487.465 77.2077L470.669 76.8653L470.786 71.1065C468.617 75.4365 464.44 77.5385 458.255 77.4124C454.789 77.3418 451.841 76.6949 449.413 75.4718C447.038 74.1965 445.232 72.5327 443.993 70.4803C442.809 68.3758 442.243 66.0437 442.295 63.4843C442.383 59.1652 444.103 55.9195 447.455 53.7474C450.807 51.5753 455.842 50.5577 462.56 50.6946L469.839 50.843C469.322 47.4184 466.61 45.6561 461.705 45.5561C459.732 45.5159 457.726 45.7951 455.686 46.3936C453.648 46.9389 451.898 47.73 450.437 48.7671L444.921 36.7322C447.459 35.237 450.496 34.0986 454.033 33.3172C457.624 32.4836 461.179 32.1026 464.698 32.1743ZM463.915 66.6455C465.195 66.6716 466.349 66.3484 467.376 65.6759C468.403 65.0033 469.171 63.9788 469.679 62.6022L469.741 59.5628L465.262 59.4715C461.583 59.3965 459.718 60.5854 459.668 63.0382C459.647 64.0514 460.003 64.9121 460.736 65.6205C461.522 66.2767 462.582 66.6184 463.915 66.6455Z" fill="#BEDBF4"/>
<path d="M529.661 78.0618C526.857 79.4511 523.112 80.0121 518.427 79.7448C512.303 79.3956 507.674 77.6625 504.54 74.5457C501.409 71.3755 500.012 66.8353 500.349 60.9249L500.987 49.7431L494.996 49.4014L495.748 36.2228L501.738 36.5645L502.435 24.3443L520.486 25.3739L519.789 37.594L528.734 38.1043L527.983 51.2828L519.037 50.7726L518.409 61.7947C518.333 63.1259 518.62 64.1839 519.269 64.9689C519.919 65.7538 520.803 66.1782 521.921 66.2419C523.465 66.33 524.846 66.0081 526.063 65.2762L529.661 78.0618Z" fill="#BEDBF4"/>
<path d="M580.404 61.6918C580.382 61.9576 580.187 63.3597 579.818 65.898L549.52 63.4099C550.022 65.11 550.98 66.473 552.395 67.4989C553.813 68.4716 555.638 69.0496 557.871 69.2329C559.785 69.3901 561.399 69.2818 562.714 68.9082C564.082 68.5389 565.585 67.8329 567.222 66.7901L575.851 77.0508C571.215 81.3792 564.671 83.1963 556.219 82.5023C550.957 82.0701 546.411 80.7336 542.582 78.4926C538.757 76.1985 535.896 73.2345 534.001 69.6005C532.105 65.9665 531.334 61.9967 531.688 57.6912C532.046 53.3325 533.427 49.5396 535.833 46.3123C538.296 43.0362 541.467 40.5942 545.345 38.9862C549.276 37.3826 553.58 36.7728 558.258 37.1569C562.669 37.5192 566.611 38.7259 570.081 40.7768C573.605 42.8321 576.29 45.648 578.137 49.2244C580.037 52.8053 580.792 56.9611 580.404 61.6918ZM557.409 49.4487C555.548 49.2959 553.965 49.6743 552.66 50.5838C551.354 51.4934 550.439 52.8631 549.914 54.6929L563.947 55.8453C563.723 54.0075 563.042 52.5334 561.902 51.4231C560.767 50.2596 559.269 49.6015 557.409 49.4487Z" fill="#BEDBF4"/>
<path d="M605.264 46.9967C608.812 43.6501 613.69 42.2844 619.9 42.8996L618.322 58.8216C616.91 58.4674 615.594 58.2298 614.373 58.1088C608.217 57.4989 604.828 60.3253 604.208 66.588L602.291 85.9333L584.3 84.1509L588.614 40.6041L605.73 42.2997L605.264 46.9967Z" fill="#BEDBF4"/>
<path d="M689.746 65.8845C692.898 67.4674 695.246 69.5248 696.79 72.0567C698.334 74.5886 698.925 77.4978 698.561 80.7844C698.021 85.6613 695.588 89.2286 691.26 91.4863C686.938 93.6909 680.96 94.3709 673.326 93.5262L641.998 90.0593L648.157 34.3991L677.896 37.69C685.317 38.5112 690.763 40.4553 694.233 43.5223C697.757 46.5952 699.275 50.3315 698.788 54.7313C698.501 57.3288 697.58 59.5879 696.026 61.5086C694.525 63.4352 692.432 64.8938 689.746 65.8845ZM665.153 49.5604L664.238 57.8299L672.984 58.7978C677.066 59.2495 679.259 58.0971 679.564 55.3406C679.869 52.5841 677.981 50.98 673.899 50.5283L665.153 49.5604ZM673.188 80.2303C677.323 80.6878 679.552 79.4589 679.874 76.5433C680.197 73.6278 678.291 71.9412 674.156 71.4837L662.865 70.2342L661.897 78.9808L673.188 80.2303Z" fill="#BEDBF4"/>
<path d="M726.63 100.174C721.804 99.6606 717.557 98.2432 713.888 95.922C710.279 93.5534 707.567 90.5563 705.754 86.9307C703.946 83.2522 703.274 79.2385 703.737 74.8897C704.2 70.5409 705.699 66.7851 708.234 63.6223C710.776 60.4065 714.057 58.0472 718.079 56.5443C722.153 55.0471 726.604 54.5552 731.43 55.0688C736.309 55.588 740.556 57.0054 744.171 59.3209C747.84 61.6421 750.551 64.6392 752.306 68.3122C754.119 71.9377 754.794 75.9249 754.331 80.2737C753.868 84.6225 752.366 88.4047 749.825 91.6206C747.343 94.789 744.061 97.1483 739.981 98.6986C735.959 100.201 731.509 100.693 726.63 100.174ZM728.12 86.1732C730.188 86.3933 731.964 85.8314 733.448 84.4875C734.938 83.0906 735.826 81.0398 736.114 78.3351C736.402 75.6304 735.962 73.465 734.794 71.8389C733.626 70.2129 732.008 69.2898 729.94 69.0697C727.872 68.8496 726.095 69.4115 724.612 70.7554C723.128 72.0992 722.242 74.1235 721.954 76.8283C721.666 79.533 722.103 81.7249 723.266 83.404C724.433 85.03 726.051 85.9531 728.12 86.1732Z" fill="#BEDBF4"/>
<path d="M779.844 65.4547C783.369 62.0847 788.239 60.6868 794.452 61.2609L792.98 77.193C791.566 76.8481 790.248 76.6192 789.027 76.5064C782.866 75.9372 779.496 78.7859 778.917 85.0525L777.129 104.41L759.126 102.747L763.152 59.1723L780.279 60.7547L779.844 65.4547Z" fill="#BEDBF4"/>
<path d="M799.524 62.4472L817.553 63.8089L814.257 107.445L796.229 106.083L799.524 62.4472ZM808.804 59.6181C805.56 59.373 802.992 58.3233 801.099 56.4688C799.264 54.5652 798.447 52.2839 798.648 49.6248C798.849 46.9657 799.997 44.8595 802.093 43.3063C804.247 41.704 806.946 41.0253 810.19 41.2703C813.487 41.5194 816.057 42.5425 817.9 44.3398C819.744 46.137 820.567 48.3386 820.37 50.9445C820.161 53.71 819.005 55.9225 816.9 57.5821C814.8 59.1884 812.101 59.8671 808.804 59.6181Z" fill="#BEDBF4"/>
<path d="M854.691 65.0102C860.073 65.2336 864.322 67.0381 867.437 70.4236C870.606 73.8113 872.055 78.7823 871.783 85.3367L870.747 110.275L852.683 109.525L853.589 87.704C853.797 82.6949 852.116 80.1163 848.545 79.9681C846.52 79.884 844.839 80.5348 843.5 81.9205C842.217 83.2551 841.512 85.441 841.386 88.4784L840.533 109.021L822.469 108.271L824.284 64.5484L841.469 65.2619L841.29 69.5782C843.066 67.9438 845.091 66.7467 847.364 65.9871C849.638 65.2274 852.08 64.9017 854.691 65.0102Z" fill="#BEDBF4"/>
<path d="M929.134 64.7568L930.697 99.762C931.068 108.074 929.028 114.411 924.578 118.774C920.184 123.187 913.725 125.584 905.2 125.965C900.831 126.16 896.733 125.862 892.908 125.072C889.084 124.335 885.801 123.147 883.059 121.508L888.583 108.929C890.346 110.132 892.55 111.074 895.196 111.757C897.843 112.44 900.365 112.727 902.762 112.62C906.385 112.459 908.988 111.568 910.571 109.95C912.154 108.331 912.878 106.029 912.745 103.046L912.71 102.247C910.13 105.458 906.176 107.183 900.848 107.421C897.119 107.587 893.591 106.89 890.265 105.33C886.989 103.715 884.321 101.351 882.261 98.2403C880.197 95.0758 879.073 91.4156 878.888 87.2597C878.702 83.1039 879.497 79.3847 881.272 76.1023C883.048 72.8199 885.496 70.2548 888.617 68.4072C891.788 66.5038 895.239 65.4689 898.968 65.3025C904.936 65.0361 909.337 66.7616 912.172 70.4789L911.951 65.5238L929.134 64.7568ZM905.016 93.1405C907.147 93.0454 908.877 92.3275 910.205 90.987C911.584 89.5908 912.227 87.8537 912.135 85.7758C912.042 83.6978 911.248 82.0516 909.752 80.8371C908.31 79.6202 906.523 79.0593 904.392 79.1544C902.207 79.2519 900.424 79.9722 899.043 81.3151C897.714 82.6557 897.097 84.3649 897.189 86.4428C897.282 88.5208 898.078 90.1936 899.576 91.4614C901.071 92.6759 902.885 93.2356 905.016 93.1405Z" fill="#BEDBF4"/>
<path d="M984.801 102.16C980.217 102.882 975.66 103.087 971.13 102.774C966.644 102.401 962.868 101.565 959.802 100.266L963.667 85.7277C966.542 86.8407 969.687 87.6142 973.103 88.0482C976.511 88.4295 979.716 88.3837 982.719 87.9108C985.3 87.5044 987.107 86.9769 988.139 86.3285C989.162 85.6275 989.595 84.7765 989.437 83.7755C989.255 82.6164 988.38 81.8633 986.814 81.516C985.3 81.1605 982.83 80.9016 979.403 80.7393C974.994 80.5157 971.289 80.1273 968.286 79.5743C965.276 78.9686 962.534 77.6726 960.062 75.6863C957.581 73.6474 956.025 70.6259 955.395 66.6219C954.847 63.1448 955.324 59.8302 956.826 56.6783C958.327 53.5264 960.872 50.8311 964.461 48.5923C968.102 46.3452 972.689 44.7861 978.221 43.915C982.014 43.3177 985.794 43.1543 989.562 43.4249C993.375 43.6344 996.801 44.3096 999.843 45.4505L996.36 59.8475C990.502 57.9624 985.149 57.4014 980.302 58.1646C975.508 58.9196 973.294 60.4561 973.659 62.7742C973.833 63.8806 974.677 64.6115 976.19 64.967C977.696 65.2699 980.132 65.4803 983.498 65.5981C987.837 65.7247 991.538 66.0867 994.602 66.6841C997.657 67.2289 1000.42 68.4944 1002.89 70.4806C1005.42 72.4586 1007 75.4496 1007.63 79.4536C1008.17 82.9307 1007.7 86.2453 1006.2 89.3972C1004.69 92.4964 1002.11 95.1959 998.482 97.4957C994.893 99.7345 990.332 101.289 984.801 102.16Z" fill="#BEDBF4"/>
<path d="M1037.84 46.7906C1041.62 46.1465 1045.25 46.4762 1048.72 47.7796C1052.23 49.0215 1055.2 51.1947 1057.62 54.2991C1060.09 57.3946 1061.71 61.1769 1062.47 65.646C1063.23 70.1151 1062.95 74.2195 1061.64 77.9591C1060.38 81.6372 1058.3 84.6692 1055.4 87.0551C1052.55 89.3795 1049.23 90.8638 1045.45 91.5079C1040.66 92.322 1036.8 91.7082 1033.85 89.6665L1036.95 107.885L1019.13 110.917L1009.19 52.4774L1026.14 49.5922L1026.75 53.1412C1028.83 49.8111 1032.53 47.6942 1037.84 46.7906ZM1038.83 78.3521C1040.88 78.0032 1042.43 76.9808 1043.5 75.285C1044.56 73.5892 1044.87 71.4005 1044.41 68.7191C1043.95 66.0376 1042.94 64.0726 1041.38 62.8241C1039.8 61.523 1037.99 61.0469 1035.94 61.3958C1033.89 61.7447 1032.34 62.7933 1031.28 64.5418C1030.22 66.2376 1029.91 68.4262 1030.37 71.1077C1030.83 73.7892 1031.84 75.7541 1033.4 77.0027C1034.97 78.2512 1036.78 78.701 1038.83 78.3521Z" fill="#BEDBF4"/>
<path d="M1114.68 57.9115C1114.72 58.1755 1114.84 59.586 1115.05 62.1429L1084.95 66.4408C1085.82 67.9871 1087.06 69.1034 1088.66 69.7898C1090.26 70.4235 1092.17 70.5819 1094.39 70.2652C1096.29 69.9938 1097.84 69.53 1099.04 68.8739C1100.29 68.2102 1101.6 67.1882 1102.96 65.808L1113.65 73.8978C1110.09 79.1472 1104.12 82.3713 1095.72 83.5702C1090.49 84.3167 1085.77 84.0223 1081.53 82.6871C1077.3 81.2992 1073.85 79.0438 1071.19 75.9211C1068.54 72.7984 1066.91 69.0988 1066.3 64.8221C1065.68 60.4927 1066.18 56.4877 1067.81 52.8071C1069.49 49.0661 1072.04 45.9813 1075.46 43.5528C1078.94 41.1167 1083 39.5669 1087.65 38.9034C1092.03 38.2775 1096.14 38.5794 1099.98 39.809C1103.87 41.031 1107.11 43.1808 1109.71 46.2582C1112.35 49.3281 1114.01 53.2126 1114.68 57.9115ZM1089.55 51.077C1087.7 51.3409 1086.24 52.0611 1085.17 53.2377C1084.1 54.4143 1083.51 55.9529 1083.4 57.8536L1097.34 55.863C1096.71 54.1207 1095.72 52.8346 1094.37 52.0049C1093 51.1224 1091.39 50.8131 1089.55 51.077Z" fill="#BEDBF4"/>
<path d="M1147.16 77.4945C1142.22 77.9601 1137.7 77.4224 1133.59 75.8813C1129.53 74.3353 1126.23 71.9417 1123.67 68.7006C1121.17 65.4545 1119.71 61.6545 1119.3 57.3004C1118.89 52.9464 1119.61 48.9676 1121.47 45.3641C1123.38 41.7025 1126.18 38.7332 1129.87 36.4562C1133.62 34.1742 1137.97 32.8004 1142.9 32.3348C1148.21 31.8341 1152.86 32.5477 1156.85 34.4754C1160.83 36.4032 1163.73 39.3172 1165.54 43.2174L1152.25 51.3813C1150.19 47.7184 1147.49 46.0447 1144.15 46.3601C1142.02 46.5604 1140.31 47.4715 1139.02 49.0934C1137.78 50.7103 1137.29 52.8727 1137.54 55.5807C1137.8 58.3418 1138.69 60.4006 1140.21 61.7572C1141.79 63.1088 1143.64 63.6844 1145.76 63.4842C1149.1 63.1688 1151.45 61.0194 1152.79 57.0362L1167.37 62.5716C1166.32 66.7422 1164.01 70.1468 1160.46 72.7855C1156.9 75.4242 1152.47 76.9938 1147.16 77.4945Z" fill="#BEDBF4"/>
<path d="M1169.73 31.0157L1187.79 30.0877L1190.03 73.79L1171.98 74.718L1169.73 31.0157ZM1178.58 27.0363C1175.33 27.2033 1172.65 26.4866 1170.54 24.8862C1168.48 23.2299 1167.38 21.0701 1167.24 18.4069C1167.1 15.7438 1167.98 13.5094 1169.86 11.7036C1171.79 9.84193 1174.38 8.82758 1177.63 8.66058C1180.94 8.49085 1183.61 9.18091 1185.67 10.7308C1187.73 12.2806 1188.82 14.3605 1188.95 16.9704C1189.1 19.7401 1188.23 22.081 1186.35 23.9933C1184.47 25.8522 1181.88 26.8666 1178.58 27.0363Z" fill="#BEDBF4"/>
<path d="M1216.02 28.5997C1223.7 28.5564 1229.58 30.2566 1233.65 33.7004C1237.72 37.0908 1239.78 42.3593 1239.82 49.5058L1239.95 73.0255L1223.15 73.1202L1223.12 67.3603C1221.07 71.7453 1216.95 73.9552 1210.76 73.9901C1207.29 74.0096 1204.33 73.4397 1201.87 72.2802C1199.46 71.0671 1197.61 69.4508 1196.32 67.4314C1195.08 65.3583 1194.46 63.0418 1194.44 60.4819C1194.42 56.162 1196.05 52.8727 1199.35 50.6141C1202.64 48.3555 1207.65 47.2072 1214.37 47.1693L1221.65 47.1283C1221.04 43.7183 1218.29 42.0272 1213.38 42.0548C1211.41 42.0659 1209.41 42.3972 1207.38 43.0486C1205.36 43.6467 1203.63 44.4831 1202.2 45.5579L1196.37 33.6706C1198.87 32.1098 1201.88 30.8928 1205.39 30.0197C1208.96 29.0929 1212.5 28.6195 1216.02 28.5997ZM1216.14 63.0796C1217.42 63.0724 1218.56 62.7193 1219.57 62.0202C1220.58 61.3212 1221.32 60.277 1221.79 58.8876L1221.78 55.8477L1217.3 55.8729C1213.62 55.8937 1211.78 57.1307 1211.8 59.584C1211.8 60.5973 1212.18 61.4485 1212.93 62.1377C1213.74 62.7731 1214.8 63.0871 1216.14 63.0796Z" fill="#BEDBF4"/>
<path d="M1251.79 14.2404L1269.84 15.2892L1266.39 74.5492L1248.35 73.5005L1251.79 14.2404Z" fill="#BEDBF4"/>
<path d="M1279.02 31.6484L1297.01 33.5009L1292.52 77.0306L1274.54 75.1781L1279.02 31.6484ZM1288.37 29.0732C1285.14 28.7399 1282.6 27.6205 1280.76 25.7152C1278.97 23.7622 1278.22 21.4595 1278.49 18.8068C1278.77 16.1542 1279.97 14.0801 1282.11 12.5847C1284.31 11.0416 1287.02 10.4367 1290.26 10.7701C1293.55 11.1089 1296.09 12.2017 1297.88 14.0485C1299.68 15.8953 1300.44 18.1185 1300.17 20.7181C1299.89 23.4768 1298.67 25.657 1296.52 27.2586C1294.38 28.8072 1291.66 29.412 1288.37 29.0732Z" fill="#BEDBF4"/>
<path d="M1316.59 81.1636C1312.91 80.5845 1309.33 79.6185 1305.87 78.2657C1302.41 76.9128 1299.68 75.4304 1297.66 73.8185L1304.41 62.8121C1306.22 64.3383 1308.45 65.6589 1311.08 66.774C1313.71 67.8891 1316.32 68.6494 1318.9 69.0547C1320.95 69.3773 1322.4 69.4426 1323.24 69.2506C1324.14 69.0141 1324.65 68.5534 1324.75 67.8685C1324.86 67.1836 1324.41 66.6266 1323.4 66.1978C1322.44 65.7771 1320.82 65.2531 1318.54 64.6257C1315.08 63.6499 1312.16 62.6515 1309.78 61.6305C1307.41 60.5567 1305.43 58.9225 1303.83 56.728C1302.28 54.5417 1301.79 51.6835 1302.34 48.1534C1302.78 45.3609 1304.02 42.9906 1306.05 41.0424C1308.08 39.0943 1310.86 37.7222 1314.39 36.9262C1317.97 36.1384 1322.1 36.1126 1326.79 36.8489C1330.06 37.3618 1333.2 38.1784 1336.2 39.2987C1339.27 40.3747 1341.83 41.6659 1343.86 43.1725L1337.11 54.1789C1333.64 51.4757 1329.65 49.7685 1325.12 49.057C1321.22 48.4449 1319.16 48.8237 1318.95 50.1936C1318.84 50.8785 1319.29 51.4618 1320.29 51.9434C1321.3 52.3723 1322.92 52.8963 1325.15 53.5154C1328.61 54.4912 1331.5 55.5118 1333.82 56.5773C1336.18 57.6511 1338.14 59.2811 1339.69 61.4674C1341.29 63.662 1341.81 66.5243 1341.25 70.0544C1340.83 72.7415 1339.61 75.0591 1337.57 77.0072C1335.54 78.9554 1332.73 80.3234 1329.15 81.1111C1325.57 81.8989 1321.39 81.9164 1316.59 81.1636Z" fill="#BEDBF4"/>
<path d="M1376.17 89.9726C1373.2 90.9457 1369.41 90.9642 1364.81 90.0281C1358.8 88.8048 1354.47 86.4262 1351.82 82.8923C1349.17 79.3061 1348.44 74.6125 1349.62 68.8114L1351.85 57.8365L1345.98 56.6398L1348.61 43.705L1354.49 44.9017L1356.93 32.9076L1374.65 36.5137L1372.2 48.5077L1380.98 50.2948L1378.35 63.2296L1369.57 61.4425L1367.37 72.2607C1367.1 73.5672 1367.24 74.6555 1367.77 75.5254C1368.3 76.3954 1369.11 76.9421 1370.21 77.1654C1371.72 77.4739 1373.14 77.3532 1374.45 76.8033L1376.17 89.9726Z" fill="#BEDBF4"/>
<path d="M1396.27 96.9068C1392.62 96.0891 1389.12 94.8929 1385.76 93.318C1382.39 91.7431 1379.76 90.0859 1377.85 88.3464L1385.3 77.8021C1387.01 79.4429 1389.14 80.9052 1391.7 82.1891C1394.25 83.473 1396.8 84.4011 1399.35 84.9735C1401.38 85.4291 1402.82 85.5883 1403.67 85.4513C1404.59 85.2739 1405.12 84.847 1405.27 84.1705C1405.43 83.494 1405.01 82.9088 1404.03 82.415C1403.1 81.9329 1401.52 81.3048 1399.29 80.5306C1395.89 79.3317 1393.04 78.1455 1390.74 76.972C1388.44 75.7466 1386.57 73.9869 1385.12 71.693C1383.72 69.4108 1383.41 66.5264 1384.19 63.0398C1384.81 60.2817 1386.2 57.9968 1388.35 56.185C1390.51 54.3731 1393.37 53.1847 1396.94 52.6196C1400.56 52.0662 1404.69 52.3093 1409.32 53.3489C1412.55 54.0731 1415.63 55.092 1418.56 56.4056C1421.55 57.6789 1424.01 59.1333 1425.94 60.7687L1418.49 71.313C1415.21 68.3904 1411.33 66.4269 1406.86 65.4224C1403.01 64.558 1400.93 64.8023 1400.63 66.1553C1400.48 66.8318 1400.88 67.443 1401.86 67.9888C1402.84 68.4826 1404.42 69.1108 1406.6 69.8732C1409.99 71.0721 1412.81 72.2785 1415.05 73.4923C1417.34 74.7178 1419.19 76.4717 1420.59 78.7539C1422.05 81.0478 1422.38 83.938 1421.6 87.4246C1421 90.0786 1419.63 92.3115 1417.47 94.1233C1415.31 95.9351 1412.43 97.1177 1408.8 97.6711C1405.18 98.2245 1401 97.9697 1396.27 96.9068Z" fill="#BEDBF4"/>
</svg>
